<svg width="1910" height="1072" viewBox="0 0 1910 1072" fill="none" xmlns="http://www.w3.org/2000/svg">
<g clip-path="url(#clip0)" filter="url(#filter0_d)">
<path d="M1441.33 864.454L1471.96 890.7L1460.61 914.134L1422.05 880.858L1376.92 919.524L1357.78 902.886L1402.63 864.454L1390.6 854.143C1383.35 847.933 1376.92 838.91 1372.82 829.302H1402.91C1404.96 832.583 1407.42 835.512 1409.88 837.504L1422.05 848.05L1434.08 837.739C1442.29 830.474 1449.4 815.711 1449.4 805.868H1340V782.434H1408.38V759H1435.73V782.434H1504.1V805.868H1476.75C1476.75 821.921 1466.63 842.777 1453.5 854.143L1441.2 864.454H1441.33ZM1493.84 958.19L1476.75 993.341H1449.4L1517.78 852.737H1545.13L1613.5 993.341H1586.15L1569.06 958.19H1493.84ZM1505.19 934.756H1557.71L1531.45 880.858L1505.19 934.756Z" fill="#222222" fill-opacity="0.2"/>
</g>
<g filter="url(#filter1_d)">
<path d="M1686.93 78L1656 108.916L1686.93 139.899L1696.43 130.335L1675 108.916L1696.43 87.4971L1686.93 78ZM1726.14 78L1716.64 87.4971L1738.07 108.916L1716.64 130.335L1726.14 139.899L1757.07 108.916L1726.14 78ZM1788 133.096L1733.49 187.587L1708.76 162.8L1699.26 172.297L1733.49 206.581L1797.5 142.594L1788 133.096Z" fill="#222222" fill-opacity="0.2"/>
</g>
<g filter="url(#filter2_d)">
<path d="M303.02 327.63C303.02 331.114 299.792 333.787 295.808 333.787H231.931C227.948 333.787 224.719 331.114 224.719 327.63C224.719 324.146 227.948 321.473 231.931 321.473H295.808C299.792 321.473 303.02 324.146 303.02 327.63Z" fill="#222222" fill-opacity="0.2"/>
<path d="M304.051 339.559C304.051 341.518 300.823 343.792 296.839 343.792H232.962C228.978 343.792 225.75 341.518 225.75 339.559C225.75 337.6 228.978 335.326 232.962 335.326H296.839C300.823 335.326 304.051 337.6 304.051 339.559Z" fill="#222222" fill-opacity="0.2"/>
<path d="M303.02 352.257C303.02 355.057 299.792 358.414 295.808 358.414H231.931C227.948 358.414 224.719 355.057 224.719 352.257C224.719 349.457 227.948 346.1 231.931 346.1H295.808C299.792 346.1 303.02 349.457 303.02 352.257Z" fill="#222222" fill-opacity="0.2"/>
<path d="M228.892 323.968C227.372 315.62 211.838 301.683 205.98 297.016C179.343 278.154 163.356 247.269 163.356 214.503C163.356 158.711 208.764 113.318 264.578 113.318C320.394 113.318 365.802 158.711 365.802 214.503C365.802 247.26 349.823 278.138 323.058 297.103C314.669 303.753 300.657 316.598 299.336 322.351L293.311 320.967C295.551 311.227 316.922 294.084 319.354 292.16C344.615 274.252 359.619 245.259 359.619 214.503C359.619 162.116 316.985 119.497 264.578 119.497C212.172 119.497 169.537 162.116 169.537 214.503C169.537 245.266 184.548 274.268 209.693 292.078C212.172 294.045 232.769 310.74 234.973 322.862L228.892 323.968" fill="#222222" fill-opacity="0.2"/>
<path d="M83.876 159.93C83.4595 159.93 83.0366 159.845 82.633 159.666C81.0716 158.978 80.361 157.156 81.0487 155.595C81.8818 153.704 82.7413 151.834 83.6306 149.975C84.3689 148.434 86.2119 147.783 87.7541 148.521C89.2939 149.257 89.945 151.101 89.2088 152.64C88.3481 154.44 87.5126 156.255 86.7072 158.085C86.1962 159.24 85.0631 159.93 83.876 159.93ZM77.8702 175.272C77.5361 175.272 77.198 175.215 76.8643 175.103C75.2499 174.547 74.3918 172.79 74.9455 171.176C75.8538 168.537 76.8258 165.894 77.8356 163.319C78.4563 161.726 80.2563 160.941 81.8397 161.569C83.4294 162.191 84.214 163.983 83.5909 165.572C82.6129 168.068 81.6707 170.629 80.7934 173.184C80.3525 174.466 79.1535 175.272 77.8702 175.272V175.272ZM71.3101 199.087C71.099 199.087 70.8876 199.063 70.674 199.019C69.0019 198.671 67.9313 197.034 68.2816 195.362C69.416 189.931 70.7988 184.476 72.3883 179.143C72.8776 177.508 74.5996 176.581 76.2342 177.065C77.8702 177.553 78.7992 179.274 78.312 180.91C76.771 186.077 75.4327 191.363 74.3301 196.629C74.0264 198.085 72.7411 199.087 71.3101 199.087V199.087ZM67.0898 239.993C65.384 239.993 64 238.61 64 236.903C64 225.735 64.9214 214.527 66.7379 203.589C67.0179 201.905 68.6059 200.769 70.2936 201.047C71.9754 201.326 73.1152 202.917 72.8354 204.601C71.0746 215.207 70.1808 226.073 70.1808 236.903C70.1808 238.61 68.7965 239.993 67.0898 239.993" fill="#222222" fill-opacity="0.2"/>
<path d="M265.931 438.715C154.586 438.715 64 348.409 64 236.816H70.1808C70.1808 343.792 157.995 432.536 265.931 432.536C319.766 432.536 369.945 411.162 407.222 372.313L411.684 376.576C373.229 416.655 321.467 438.715 265.931 438.715Z" fill="#222222" fill-opacity="0.2"/>
<path d="M394.703 367.553L423.889 357.652L417.878 387.868L394.703 367.553Z" fill="#222222" fill-opacity="0.2"/>
<path d="M462.081 272.802C461.912 272.802 461.743 272.787 461.57 272.76C459.888 272.482 458.748 270.889 459.029 269.207C460.787 258.611 461.68 247.74 461.68 236.903C461.68 235.197 463.065 233.813 464.772 233.813C466.477 233.813 467.862 235.197 467.862 236.903C467.862 248.081 466.942 259.288 465.126 270.217C464.874 271.73 463.564 272.802 462.081 272.802V272.802ZM456.515 296.871C456.221 296.871 455.925 296.829 455.63 296.74C453.994 296.254 453.064 294.532 453.551 292.898C455.092 287.731 456.431 282.443 457.534 277.179C457.881 275.507 459.538 274.445 461.19 274.787C462.862 275.137 463.932 276.774 463.583 278.444C462.447 283.875 461.064 289.332 459.475 294.665C459.074 296.004 457.845 296.871 456.515 296.871V296.871ZM451.148 312.454C450.774 312.454 450.394 312.385 450.023 312.241C448.434 311.619 447.649 309.827 448.269 308.238C449.263 305.699 450.205 303.137 451.069 300.623C451.623 299.01 453.38 298.152 454.998 298.708C456.611 299.263 457.468 301.021 456.915 302.634C456.021 305.226 455.05 307.868 454.027 310.487C453.551 311.706 452.384 312.454 451.148 312.454ZM445.838 324.75C445.395 324.75 444.949 324.655 444.522 324.454C442.979 323.726 442.317 321.884 443.045 320.343C443.765 318.812 444.47 317.273 445.154 315.722C445.843 314.16 447.663 313.452 449.229 314.142C450.79 314.831 451.498 316.654 450.808 318.215C450.105 319.812 449.38 321.401 448.636 322.978C448.108 324.094 446.997 324.75 445.838 324.75" fill="#222222" fill-opacity="0.2"/>
<path d="M467.862 236.816H461.68C461.68 127.531 373.866 41.1838 265.931 41.1838C212.166 41.1838 162.033 62.5536 124.768 101.318L120.309 97.0476C158.751 57.0594 210.467 35 265.931 35C377.275 35 467.862 125.992 467.862 236.816Z" fill="#222222" fill-opacity="0.2"/>
<path d="M137.28 106.133L108.087 116.005L114.127 85.7951L137.28 106.133Z" fill="#222222" fill-opacity="0.2"/>
<path d="M237.476 241.139L238.637 239.884C239.439 239.077 240.24 238.267 241.104 237.527C241.937 236.752 242.842 236.062 243.732 235.36C244.649 234.69 245.561 234.019 246.525 233.423C247.459 232.784 248.46 232.259 249.434 231.687C250.445 231.187 251.428 230.631 252.465 230.195L254.009 229.517C254.526 229.3 255.057 229.114 255.58 228.913C256.621 228.493 257.693 228.173 258.755 227.831C259.818 227.481 260.912 227.246 261.984 226.948C263.069 226.692 264.162 226.486 265.249 226.254L265.287 226.244L265.347 226.236C266.43 226.09 267.702 225.755 268.861 225.371C270.042 224.979 271.207 224.517 272.34 223.971C273.479 223.44 274.583 222.83 275.658 222.171C276.728 221.501 277.779 220.796 278.774 220.011C279.284 219.632 279.775 219.23 280.252 218.814C280.742 218.411 281.213 217.983 281.67 217.544C282.142 217.114 282.597 216.672 283.033 216.205C283.478 215.748 283.924 215.291 284.335 214.805C285.192 213.859 285.975 212.848 286.76 211.836C287.504 210.794 288.254 209.755 288.922 208.658C289.639 207.592 290.227 206.445 290.866 205.331C291.44 204.176 292.061 203.046 292.563 201.855C292.823 201.266 293.096 200.68 293.345 200.085L294.053 198.283C294.553 197.088 294.913 195.842 295.345 194.624C295.748 193.39 296.082 192.14 296.454 190.896L297.378 187.117L298.14 183.297L298.763 179.447C298.763 179.447 287.115 189.582 268.062 191.705C230.386 195.899 229.893 224.025 229.893 224.025C229.646 232.969 231.471 239.828 234.36 245.094C234.993 244.18 235.671 243.3 236.369 242.442C236.737 242.008 237.097 241.565 237.476 241.139" fill="#222222" fill-opacity="0.2"/>
<path d="M298.762 179.447L298.307 183.321L297.704 187.183L296.941 191.017C296.623 192.28 296.34 193.556 295.989 194.815C295.607 196.062 295.293 197.337 294.842 198.564L294.202 200.421C293.977 201.034 293.726 201.64 293.486 202.249C293.03 203.48 292.448 204.659 291.913 205.858C291.311 207.025 290.755 208.221 290.071 209.347C289.433 210.5 288.709 211.605 287.988 212.711C287.224 213.787 286.459 214.869 285.611 215.887C285.203 216.414 284.761 216.907 284.321 217.401C283.887 217.906 283.433 218.389 282.962 218.86C282.504 219.339 282.028 219.807 281.534 220.252C281.051 220.71 280.551 221.155 280.034 221.576C279.022 222.446 277.944 223.241 276.841 223.997C275.731 224.747 274.583 225.445 273.389 226.069C272.201 226.701 270.969 227.258 269.701 227.739C268.41 228.218 267.177 228.623 265.689 228.893L265.786 228.877C264.758 229.147 263.724 229.388 262.703 229.674C261.693 230.003 260.667 230.269 259.677 230.643C258.687 231.011 257.687 231.353 256.727 231.789C256.244 232.003 255.757 232.196 255.278 232.419L253.865 233.117C252.916 233.564 252.025 234.121 251.108 234.624C250.231 235.193 249.324 235.716 248.489 236.344C247.623 236.927 246.815 237.583 246.001 238.23C245.217 238.911 244.414 239.574 243.685 240.314C242.927 241.022 242.23 241.79 241.533 242.555L240.528 243.738C240.202 244.14 239.894 244.556 239.576 244.963C238.959 245.793 238.363 246.637 237.815 247.511C237.498 248.004 237.2 248.505 236.907 249.012C246.376 261.407 262.043 262.36 262.043 262.36C297.84 261.881 300.078 230.076 300.078 230.076C303.136 205.162 298.762 179.447 298.762 179.447" fill="#222222" fill-opacity="0.2"/>
<path d="M238.406 246.812C237.749 247.745 237.131 248.706 236.557 249.692C235.969 250.674 235.433 251.686 234.928 252.711C234.423 253.739 233.961 254.787 233.533 255.851C233.107 256.917 232.731 258.008 232.391 259.114C232.052 260.241 231.761 261.31 231.538 262.589C231.529 262.626 231.524 262.668 231.519 262.702C231.344 264.05 232.298 265.283 233.646 265.458C234.995 265.631 236.228 264.677 236.403 263.33L236.407 263.286C236.521 262.421 236.743 261.375 236.99 260.409C237.248 259.428 237.542 258.446 237.882 257.476C238.22 256.507 238.594 255.55 239.011 254.608C239.425 253.665 239.867 252.734 240.359 251.824C240.567 251.43 240.786 251.04 241.008 250.653C240.093 249.457 239.241 248.151 238.461 246.733C238.444 246.758 238.423 246.783 238.406 246.812" fill="#222222" fill-opacity="0.2"/>
</g>
<defs>
<filter id="filter0_d" x="1336" y="759" width="281.501" height="242.341" filterUnits="userSpaceOnUse" color-interpolation-filters="sRGB">
<feFlood flood-opacity="0" result="BackgroundImageFix"/>
<feColorMatrix in="SourceAlpha" type="matrix" values="0 0 0 0 0 0 0 0 0 0 0 0 0 0 0 0 0 0 127 0"/>
<feOffset dy="4"/>
<feGaussianBlur stdDeviation="2"/>
<feColorMatrix type="matrix" values="0 0 0 0 0 0 0 0 0 0 0 0 0 0 0 0 0 0 0.25 0"/>
<feBlend mode="normal" in2="BackgroundImageFix" result="effect1_dropShadow"/>
<feBlend mode="normal" in="SourceGraphic" in2="effect1_dropShadow" result="shape"/>
</filter>
<filter id="filter1_d" x="1652" y="78" width="149.499" height="136.581" filterUnits="userSpaceOnUse" color-interpolation-filters="sRGB">
<feFlood flood-opacity="0" result="BackgroundImageFix"/>
<feColorMatrix in="SourceAlpha" type="matrix" values="0 0 0 0 0 0 0 0 0 0 0 0 0 0 0 0 0 0 127 0"/>
<feOffset dy="4"/>
<feGaussianBlur stdDeviation="2"/>
<feColorMatrix type="matrix" values="0 0 0 0 0 0 0 0 0 0 0 0 0 0 0 0 0 0 0.25 0"/>
<feBlend mode="normal" in2="BackgroundImageFix" result="effect1_dropShadow"/>
<feBlend mode="normal" in="SourceGraphic" in2="effect1_dropShadow" result="shape"/>
</filter>
<filter id="filter2_d" x="60" y="35" width="411.862" height="411.715" filterUnits="userSpaceOnUse" color-interpolation-filters="sRGB">
<feFlood flood-opacity="0" result="BackgroundImageFix"/>
<feColorMatrix in="SourceAlpha" type="matrix" values="0 0 0 0 0 0 0 0 0 0 0 0 0 0 0 0 0 0 127 0"/>
<feOffset dy="4"/>
<feGaussianBlur stdDeviation="2"/>
<feColorMatrix type="matrix" values="0 0 0 0 0 0 0 0 0 0 0 0 0 0 0 0 0 0 0.25 0"/>
<feBlend mode="normal" in2="BackgroundImageFix" result="effect1_dropShadow"/>
<feBlend mode="normal" in="SourceGraphic" in2="effect1_dropShadow" result="shape"/>
</filter>
<clipPath id="clip0">
<rect width="273.501" height="234.341" fill="white" transform="translate(1340 759)"/>
</clipPath>
</defs>
</svg>
