<svg width="53" height="52" viewBox="0 0 53 52" fill="none" xmlns="http://www.w3.org/2000/svg">
<rect x="9.85132" y="12.5649" width="34.6766" height="26.6766" fill="#7D50F9"/>
<path d="M37.1917 16.7144H15.8083L26.5 25.7058L37.1917 16.7144Z" fill="#303033"/>
<path d="M26.4999 27.8571C26.2739 27.8571 26.0553 27.7777 25.8839 27.6331L14.1963 17.8042V35.2856H38.8034V17.8042L27.1159 27.6331C26.9444 27.7777 26.7258 27.8571 26.4999 27.8571Z" fill="#303033"/>
<path d="M26.5 0C11.8646 0 0 11.6407 0 26C0 40.3593 11.8646 52 26.5 52C41.1354 52 53 40.3593 53 26C52.9834 11.6475 41.1285 0.0163225 26.5 0ZM40.6964 36.2143C40.6964 36.7271 40.2727 37.1429 39.75 37.1429H13.25C12.7273 37.1429 12.3036 36.7271 12.3036 36.2143V15.7857C12.3036 15.2729 12.7273 14.8571 13.25 14.8571H39.75C40.2727 14.8571 40.6964 15.2729 40.6964 15.7857V36.2143Z" fill="#303033"/>
</svg>
