<svg width="53" height="52" viewBox="0 0 53 52" fill="none" xmlns="http://www.w3.org/2000/svg">
<ellipse cx="26.5701" cy="26.4831" rx="21.9597" ry="20.8425" fill="#7D50F9"/>
<path d="M35.792 16.4915H31.7048V20.6224H35.792V16.4915Z" fill="#303033"/>
<path d="M33.2832 25.9546C33.2832 29.6243 30.2398 32.6102 26.4995 32.6102C22.7587 32.6102 19.7153 29.6243 19.7153 25.9546C19.7153 24.9615 19.9444 24.0215 20.3435 23.1741H15.8604V34.5991C15.8604 35.6362 16.7204 36.48 17.7775 36.48H35.2215C36.2785 36.48 37.1386 35.6362 37.1386 34.5991V23.1745H32.655C33.0541 24.0219 33.2832 24.9615 33.2832 25.9546Z" fill="#303033"/>
<path d="M26.5003 29.9129C28.7245 29.9129 30.5348 28.1372 30.5348 25.9546C30.5348 24.8716 30.0885 23.8898 29.3678 23.1741H23.6319C22.9116 23.8893 22.4653 24.8716 22.4653 25.9546C22.4653 28.1372 24.2753 29.9129 26.5003 29.9129Z" fill="#303033"/>
<path d="M26.4995 0C11.8644 0 0 11.6408 0 25.9995C0 40.3579 11.8644 52 26.4995 52C41.1347 52 53 40.3583 53 25.9995C52.9995 11.6408 41.1347 0 26.4995 0ZM39.8879 34.5995C39.8879 37.1238 37.7948 39.1778 35.2215 39.1778H17.7776C15.2047 39.1778 13.1112 37.1242 13.1112 34.5995V17.4063C13.1112 14.8821 15.2043 12.828 17.7776 12.828H35.2215C37.7944 12.828 39.8879 14.8816 39.8879 17.4063V34.5995Z" fill="#303033"/>
</svg>
