<svg width="52" height="52" viewBox="0 0 52 52" fill="none" xmlns="http://www.w3.org/2000/svg">
<circle cx="26" cy="26" r="26" fill="#303033"/>
<path d="M36.2257 20.4865C37.3237 19.7046 38.2474 18.7287 39 17.605V17.6039C37.9954 18.045 36.9266 18.3384 35.8106 18.4805C36.9581 17.7934 37.8345 16.7137 38.2463 15.4129C37.1764 16.0526 35.9951 16.5039 34.7362 16.7566C33.7204 15.6713 32.2725 15 30.693 15C27.6285 15 25.1614 17.4945 25.1614 20.5519C25.1614 20.9919 25.1985 21.415 25.2896 21.8177C20.6884 21.5921 16.6159 19.3808 13.8799 16.0109C13.4029 16.8424 13.1216 17.7934 13.1216 18.8167C13.1216 20.7392 14.1083 22.4428 15.5809 23.4299C14.691 23.413 13.8191 23.1535 13.08 22.7463V22.8072C13.08 25.5047 14.9981 27.7453 17.5148 28.2621C17.0636 28.3862 16.5731 28.4448 16.0635 28.4448C15.7091 28.4448 15.3514 28.4245 15.0161 28.3501C15.7327 30.5478 17.769 32.1645 20.1877 32.2175C18.3045 33.6944 15.9128 34.5845 13.3241 34.5845C12.8708 34.5845 12.4354 34.5642 12 34.5089C14.4525 36.0941 17.3572 37 20.4915 37C30.2599 37 36.6263 28.8273 36.2257 20.4865Z" fill="#7D50F9"/>
</svg>
