<svg width="1910" height="1053" viewBox="0 0 1910 1053" fill="none" xmlns="http://www.w3.org/2000/svg">
<g clip-path="url(#clip0)">
<path d="M342.148 844.704C341.888 844.721 341.627 844.721 341.366 844.704C340.468 844.584 339.608 844.259 338.855 843.754C338.102 843.249 337.475 842.578 337.022 841.792L323.137 817.738L309.299 815.596C302.303 814.598 295.82 811.358 290.823 806.361C285.827 801.364 282.586 794.881 281.588 787.885L279.54 774.035L255.487 760.162C254.701 759.709 254.03 759.082 253.525 758.329C253.02 757.576 252.695 756.716 252.575 755.818C252.456 754.917 252.546 754.002 252.837 753.142C253.129 752.282 253.614 751.5 254.256 750.858L275.184 729.882C276.293 728.776 277.796 728.154 279.363 728.154H318.769L348.078 698.833C352.071 694.827 356.902 691.757 362.224 689.843C367.546 687.93 373.226 687.22 378.855 687.765L401.89 689.931C403.263 690.06 404.547 690.664 405.521 691.639C406.496 692.614 407.1 693.898 407.229 695.27L409.395 718.305C409.941 723.935 409.232 729.615 407.318 734.937C405.404 740.259 402.334 745.09 398.327 749.082L368.983 778.415V817.821C368.982 819.388 368.361 820.891 367.255 822L346.326 842.928C345.781 843.485 345.131 843.928 344.414 844.233C343.697 844.537 342.927 844.697 342.148 844.704ZM268.082 753.77L287.992 765.228C288.766 765.674 289.428 766.289 289.931 767.027C290.433 767.765 290.762 768.607 290.892 769.49L293.354 786.168C293.99 790.653 296.065 794.809 299.267 798.012C302.47 801.214 306.626 803.289 311.11 803.924L327.789 806.386C328.672 806.517 329.514 806.846 330.252 807.348C330.99 807.851 331.605 808.513 332.05 809.287L343.509 829.138L357.24 815.395V775.965C357.244 774.396 357.87 772.893 358.98 771.786L390.029 740.737C392.8 737.972 394.924 734.627 396.249 730.942C397.573 727.258 398.064 723.327 397.688 719.43L395.972 701.272L377.719 699.591C373.822 699.216 369.891 699.708 366.207 701.033C362.523 702.357 359.178 704.48 356.412 707.249L325.398 738.299C324.291 739.409 322.788 740.035 321.219 740.039H281.825L268.082 753.77Z" fill="#222222" fill-opacity="0.5"/>
<path d="M236.275 866.827C235.104 866.827 233.959 866.479 232.986 865.828C232.012 865.177 231.254 864.252 230.807 863.17C230.359 862.087 230.243 860.897 230.473 859.748C230.702 858.6 231.267 857.545 232.096 856.718L273.918 814.897C274.464 814.332 275.117 813.881 275.839 813.571C276.561 813.261 277.337 813.097 278.123 813.091C278.909 813.084 279.689 813.233 280.416 813.531C281.143 813.829 281.804 814.268 282.36 814.824C282.916 815.38 283.355 816.04 283.653 816.768C283.95 817.495 284.1 818.275 284.093 819.06C284.086 819.846 283.923 820.623 283.613 821.345C283.303 822.067 282.852 822.72 282.287 823.266L240.465 865.087C239.916 865.639 239.263 866.076 238.544 866.375C237.825 866.673 237.054 866.827 236.275 866.827V866.827Z" fill="#222222" fill-opacity="0.5"/>
<path d="M235.802 818.816C234.632 818.815 233.489 818.469 232.516 817.819C231.543 817.169 230.785 816.246 230.336 815.166C229.888 814.085 229.77 812.896 229.997 811.749C230.224 810.601 230.785 809.547 231.611 808.718L256.576 783.742C257.686 782.63 259.192 782.006 260.762 782.004C262.333 782.003 263.84 782.626 264.951 783.736C266.062 784.846 266.687 786.352 266.688 787.922C266.689 789.493 266.067 790.999 264.957 792.111L239.98 817.087C238.871 818.194 237.368 818.815 235.802 818.816V818.816Z" fill="#222222" fill-opacity="0.5"/>
<path d="M283.802 866.827C282.631 866.827 281.486 866.48 280.512 865.828C279.539 865.177 278.781 864.252 278.333 863.17C277.886 862.087 277.77 860.897 277.999 859.748C278.229 858.6 278.794 857.546 279.623 856.718L304.564 831.754C305.11 831.188 305.763 830.737 306.485 830.427C307.207 830.117 307.984 829.954 308.77 829.947C309.556 829.94 310.335 830.09 311.063 830.388C311.79 830.685 312.451 831.125 313.007 831.68C313.562 832.236 314.002 832.897 314.299 833.624C314.597 834.352 314.747 835.131 314.74 835.917C314.733 836.703 314.57 837.479 314.26 838.201C313.949 838.924 313.498 839.577 312.933 840.123L287.992 865.087C287.442 865.639 286.789 866.076 286.07 866.375C285.351 866.674 284.58 866.827 283.802 866.827Z" fill="#222222" fill-opacity="0.5"/>
<path d="M368.486 745.27C365.208 745.27 362.004 744.298 359.279 742.477C356.553 740.656 354.429 738.068 353.175 735.04C351.921 732.012 351.592 728.68 352.232 725.465C352.871 722.25 354.45 719.298 356.767 716.98C359.085 714.662 362.038 713.084 365.252 712.444C368.467 711.805 371.799 712.133 374.827 713.387C377.856 714.642 380.444 716.766 382.265 719.491C384.086 722.216 385.058 725.42 385.058 728.698C385.058 733.093 383.312 737.309 380.204 740.416C377.096 743.524 372.881 745.27 368.486 745.27V745.27ZM368.486 723.963C367.549 723.963 366.634 724.241 365.855 724.761C365.076 725.282 364.469 726.021 364.111 726.886C363.753 727.751 363.659 728.703 363.842 729.622C364.024 730.54 364.475 731.384 365.137 732.046C365.8 732.708 366.643 733.159 367.562 733.342C368.48 733.525 369.432 733.431 370.297 733.073C371.163 732.714 371.902 732.107 372.422 731.329C372.943 730.55 373.22 729.635 373.22 728.698C373.22 727.442 372.722 726.238 371.834 725.35C370.946 724.462 369.741 723.963 368.486 723.963Z" fill="#222222" fill-opacity="0.5"/>
<path d="M365.822 1028.18C365.562 1028.2 365.301 1028.2 365.041 1028.18C364.142 1028.06 363.283 1027.74 362.53 1027.23C361.777 1026.73 361.149 1026.06 360.697 1025.27L346.812 1001.22L332.974 999.073C325.978 998.076 319.495 994.835 314.498 989.838C309.501 984.841 306.26 978.358 305.263 971.362L303.215 957.513L279.162 943.64C278.376 943.187 277.705 942.56 277.2 941.806C276.695 941.053 276.37 940.194 276.25 939.295C276.131 938.395 276.22 937.479 276.512 936.619C276.803 935.759 277.289 934.978 277.93 934.335L298.859 913.36C299.968 912.253 301.471 911.632 303.037 911.632H342.444L371.753 882.311C375.745 878.305 380.577 875.235 385.898 873.321C391.22 871.407 396.9 870.697 402.53 871.243L425.565 873.409C426.937 873.538 428.221 874.142 429.196 875.117C430.171 876.091 430.775 877.375 430.904 878.748L433.07 901.783C433.616 907.412 432.907 913.093 430.993 918.415C429.079 923.737 426.008 928.568 422.002 932.56L392.657 961.893V1001.3C392.657 1002.87 392.036 1004.37 390.929 1005.48L370.001 1026.41C369.455 1026.96 368.806 1027.41 368.089 1027.71C367.371 1028.01 366.601 1028.17 365.822 1028.18ZM291.756 937.247L311.667 948.706C312.44 949.151 313.103 949.766 313.605 950.504C314.107 951.242 314.436 952.084 314.567 952.967L317.029 969.646C317.664 974.13 319.739 978.287 322.942 981.489C326.144 984.692 330.301 986.767 334.785 987.402L351.464 989.864C352.347 989.995 353.189 990.324 353.927 990.826C354.665 991.328 355.279 991.991 355.725 992.764L367.184 1012.62L380.915 998.872V959.442C380.918 957.874 381.544 956.371 382.655 955.264L413.704 924.215C416.475 921.449 418.599 918.104 419.923 914.42C421.247 910.736 421.739 906.804 421.363 902.907L419.646 884.749L401.393 883.068C397.497 882.694 393.565 883.186 389.882 884.51C386.198 885.834 382.853 887.957 380.086 890.727L349.072 921.776C347.965 922.887 346.462 923.513 344.894 923.516H305.5L291.756 937.247Z" fill="#222222" fill-opacity="0.5"/>
<path d="M259.95 1050.3C258.778 1050.3 257.634 1049.96 256.66 1049.31C255.687 1048.65 254.928 1047.73 254.481 1046.65C254.034 1045.56 253.917 1044.37 254.147 1043.23C254.377 1042.08 254.942 1041.02 255.771 1040.2L297.592 998.375C298.138 997.809 298.791 997.359 299.513 997.048C300.235 996.738 301.012 996.575 301.798 996.568C302.584 996.561 303.363 996.711 304.091 997.009C304.818 997.306 305.479 997.746 306.034 998.301C306.59 998.857 307.03 999.518 307.327 1000.25C307.625 1000.97 307.775 1001.75 307.768 1002.54C307.761 1003.32 307.598 1004.1 307.287 1004.82C306.977 1005.54 306.526 1006.2 305.961 1006.74L264.14 1048.56C263.59 1049.12 262.937 1049.55 262.218 1049.85C261.499 1050.15 260.728 1050.3 259.95 1050.3V1050.3Z" fill="#222222" fill-opacity="0.5"/>
<path d="M259.476 1002.29C258.307 1002.29 257.163 1001.95 256.19 1001.3C255.218 1000.65 254.459 999.724 254.011 998.643C253.563 997.563 253.444 996.374 253.671 995.226C253.898 994.079 254.46 993.024 255.286 992.196L280.251 967.219C281.36 966.108 282.866 965.483 284.437 965.482C286.007 965.481 287.514 966.104 288.626 967.213C289.737 968.323 290.362 969.829 290.363 971.4C290.364 972.97 289.741 974.477 288.631 975.588L263.655 1000.56C262.546 1001.67 261.043 1002.29 259.476 1002.29V1002.29Z" fill="#222222" fill-opacity="0.5"/>
<path d="M307.476 1050.31C306.305 1050.3 305.16 1049.96 304.187 1049.31C303.213 1048.65 302.455 1047.73 302.008 1046.65C301.56 1045.57 301.444 1044.37 301.674 1043.23C301.903 1042.08 302.469 1041.02 303.298 1040.2L328.239 1015.23C328.785 1014.67 329.438 1014.22 330.16 1013.9C330.882 1013.59 331.659 1013.43 332.445 1013.42C333.23 1013.42 334.01 1013.57 334.737 1013.87C335.465 1014.16 336.125 1014.6 336.681 1015.16C337.237 1015.71 337.676 1016.37 337.974 1017.1C338.271 1017.83 338.421 1018.61 338.414 1019.39C338.408 1020.18 338.244 1020.96 337.934 1021.68C337.624 1022.4 337.173 1023.05 336.608 1023.6L311.667 1048.56C311.117 1049.12 310.464 1049.55 309.745 1049.85C309.026 1050.15 308.255 1050.3 307.476 1050.31Z" fill="#222222" fill-opacity="0.5"/>
<path d="M392.16 928.748C388.882 928.748 385.678 927.776 382.953 925.955C380.228 924.134 378.104 921.546 376.849 918.518C375.595 915.489 375.267 912.157 375.906 908.943C376.546 905.728 378.124 902.775 380.442 900.457C382.759 898.14 385.712 896.561 388.927 895.922C392.142 895.283 395.474 895.611 398.502 896.865C401.53 898.119 404.118 900.243 405.939 902.969C407.76 905.694 408.732 908.898 408.732 912.176C408.732 916.571 406.986 920.786 403.878 923.894C400.77 927.002 396.555 928.748 392.16 928.748V928.748ZM392.16 907.441C391.224 907.441 390.308 907.718 389.53 908.239C388.751 908.759 388.144 909.499 387.786 910.364C387.427 911.229 387.333 912.181 387.516 913.099C387.699 914.018 388.15 914.862 388.812 915.524C389.474 916.186 390.318 916.637 391.236 916.82C392.155 917.002 393.107 916.909 393.972 916.55C394.837 916.192 395.577 915.585 396.097 914.806C396.617 914.028 396.895 913.112 396.895 912.176C396.895 910.92 396.396 909.716 395.508 908.828C394.62 907.94 393.416 907.441 392.16 907.441Z" fill="#222222" fill-opacity="0.5"/>
<path d="M151.568 819.845C151.307 819.863 151.046 819.863 150.786 819.845C149.888 819.725 149.028 819.4 148.275 818.895C147.522 818.39 146.895 817.719 146.442 816.933L132.557 792.88L118.719 790.738C111.723 789.74 105.24 786.499 100.243 781.502C95.2464 776.506 92.0058 770.022 91.0081 763.026L88.9603 749.177L64.9069 735.304C64.1212 734.851 63.45 734.224 62.9451 733.471C62.4402 732.717 62.1151 731.858 61.995 730.959C61.8759 730.059 61.9655 729.143 62.257 728.283C62.5485 727.423 63.034 726.642 63.6759 725.999L84.6042 705.024C85.7134 703.917 87.216 703.296 88.7827 703.296H128.189L157.498 673.975C161.491 669.969 166.322 666.899 171.644 664.985C176.966 663.071 182.646 662.361 188.275 662.907L211.31 665.073C212.683 665.202 213.967 665.806 214.941 666.781C215.916 667.755 216.52 669.039 216.649 670.412L218.815 693.447C219.361 699.076 218.652 704.757 216.738 710.079C214.824 715.401 211.754 720.232 207.747 724.224L178.403 753.557V792.963C178.402 794.53 177.781 796.032 176.674 797.141L155.746 818.07C155.201 818.626 154.551 819.069 153.834 819.374C153.117 819.679 152.347 819.839 151.568 819.845ZM77.5018 728.911L97.4121 740.37C98.1856 740.816 98.8482 741.43 99.3504 742.168C99.8527 742.906 100.181 743.748 100.312 744.631L102.774 761.31C103.41 765.794 105.485 769.951 108.687 773.153C111.89 776.356 116.046 778.431 120.53 779.066L137.209 781.528C138.092 781.659 138.934 781.988 139.672 782.49C140.41 782.992 141.025 783.655 141.47 784.428L152.929 804.279L166.66 790.536V751.106C166.664 749.538 167.289 748.035 168.4 746.928L199.449 715.879C202.22 713.113 204.344 709.768 205.669 706.084C206.993 702.4 207.484 698.468 207.108 694.572L205.392 676.413L187.139 674.732C183.242 674.358 179.311 674.85 175.627 676.174C171.943 677.498 168.598 679.621 165.832 682.391L134.818 713.44C133.711 714.551 132.208 715.177 130.639 715.18H91.2449L77.5018 728.911Z" fill="#222222" fill-opacity="0.5"/>
<path d="M45.695 841.969C44.5238 841.969 43.3791 841.621 42.4057 840.97C41.4322 840.319 40.6738 839.394 40.2264 838.311C39.7791 837.229 39.6628 836.038 39.8925 834.89C40.1221 833.741 40.6873 832.687 41.5164 831.86L83.3375 790.039C83.8835 789.474 84.5366 789.023 85.2586 788.712C85.9807 788.402 86.7574 788.239 87.5433 788.232C88.3291 788.225 89.1085 788.375 89.8359 788.673C90.5633 788.97 91.2241 789.41 91.7798 789.965C92.3355 790.521 92.775 791.182 93.0726 791.909C93.3702 792.637 93.5199 793.416 93.5131 794.202C93.5063 794.988 93.343 795.765 93.0328 796.487C92.7226 797.209 92.2717 797.862 91.7064 798.408L49.8854 840.229C49.3357 840.78 48.6826 841.218 47.9635 841.516C47.2445 841.815 46.4736 841.969 45.695 841.969V841.969Z" fill="#222222" fill-opacity="0.5"/>
<path d="M45.2216 793.957C44.0519 793.957 42.9085 793.61 41.9358 792.961C40.963 792.311 40.2046 791.388 39.7563 790.307C39.3079 789.227 39.1897 788.038 39.4166 786.89C39.6435 785.743 40.2054 784.688 41.0312 783.86L65.996 758.883C67.1058 757.772 68.6116 757.147 70.1822 757.146C71.7528 757.145 73.2595 757.768 74.3709 758.878C75.4822 759.987 76.1072 761.493 76.1083 763.064C76.1094 764.634 75.4866 766.141 74.3768 767.252L49.4001 792.229C48.2909 793.335 46.7883 793.957 45.2216 793.957V793.957Z" fill="#222222" fill-opacity="0.5"/>
<path d="M93.2216 841.969C92.0505 841.969 90.9057 841.621 89.9323 840.97C88.9588 840.319 88.2004 839.394 87.7531 838.311C87.3057 837.229 87.1895 836.038 87.4191 834.89C87.6487 833.742 88.2139 832.687 89.043 831.86L113.984 806.895C114.53 806.33 115.183 805.879 115.905 805.569C116.627 805.259 117.404 805.095 118.19 805.089C118.976 805.082 119.755 805.232 120.483 805.529C121.21 805.827 121.871 806.266 122.426 806.822C122.982 807.378 123.422 808.038 123.719 808.766C124.017 809.493 124.167 810.273 124.16 811.058C124.153 811.844 123.99 812.621 123.679 813.343C123.369 814.065 122.918 814.718 122.353 815.264L97.412 840.229C96.8623 840.78 96.2092 841.218 95.4901 841.517C94.7711 841.815 94.0002 841.969 93.2216 841.969Z" fill="#222222" fill-opacity="0.5"/>
<path d="M177.905 720.412C174.628 720.412 171.424 719.44 168.698 717.619C165.973 715.798 163.849 713.21 162.595 710.182C161.34 707.153 161.012 703.821 161.652 700.607C162.291 697.392 163.869 694.439 166.187 692.121C168.505 689.804 171.458 688.225 174.672 687.586C177.887 686.947 181.219 687.275 184.247 688.529C187.276 689.783 189.864 691.907 191.685 694.633C193.506 697.358 194.478 700.562 194.478 703.84C194.478 708.235 192.732 712.45 189.624 715.558C186.516 718.666 182.301 720.412 177.905 720.412V720.412ZM177.905 699.105C176.969 699.105 176.054 699.383 175.275 699.903C174.496 700.423 173.889 701.163 173.531 702.028C173.173 702.893 173.079 703.845 173.262 704.764C173.444 705.682 173.895 706.526 174.557 707.188C175.22 707.85 176.063 708.301 176.982 708.484C177.9 708.666 178.852 708.573 179.717 708.214C180.583 707.856 181.322 707.249 181.842 706.47C182.363 705.692 182.64 704.776 182.64 703.84C182.64 702.584 182.142 701.38 181.254 700.492C180.366 699.604 179.161 699.105 177.905 699.105Z" fill="#222222" fill-opacity="0.5"/>
<path d="M151.568 1034.1C151.307 1034.12 151.046 1034.12 150.786 1034.1C149.888 1033.98 149.028 1033.65 148.275 1033.15C147.522 1032.64 146.895 1031.97 146.442 1031.19L132.557 1007.13L118.719 1004.99C111.723 1003.99 105.24 1000.75 100.243 995.757C95.2464 990.76 92.0058 984.277 91.0081 977.281L88.9603 963.431L64.9069 949.558C64.1212 949.105 63.45 948.478 62.9451 947.725C62.4402 946.972 62.1151 946.112 61.995 945.214C61.8759 944.313 61.9655 943.398 62.257 942.538C62.5485 941.678 63.034 940.896 63.6759 940.254L84.6042 919.278C85.7134 918.172 87.216 917.55 88.7827 917.55H128.189L157.498 888.229C161.491 884.223 166.322 881.153 171.644 879.239C176.966 877.326 182.646 876.616 188.275 877.161L211.31 879.327C212.683 879.456 213.967 880.06 214.941 881.035C215.916 882.01 216.52 883.294 216.649 884.666L218.815 907.701C219.361 913.331 218.652 919.011 216.738 924.333C214.824 929.655 211.754 934.486 207.747 938.478L178.403 967.811V1007.22C178.402 1008.78 177.781 1010.29 176.674 1011.4L155.746 1032.32C155.201 1032.88 154.551 1033.32 153.834 1033.63C153.117 1033.93 152.347 1034.09 151.568 1034.1ZM77.5018 943.166L97.4121 954.624C98.1856 955.07 98.8482 955.685 99.3504 956.423C99.8527 957.161 100.181 958.003 100.312 958.886L102.774 975.564C103.41 980.049 105.485 984.205 108.687 987.408C111.89 990.61 116.046 992.685 120.53 993.32L137.209 995.782C138.092 995.913 138.934 996.242 139.672 996.744C140.41 997.247 141.025 997.909 141.47 998.683L152.929 1018.53L166.66 1004.79V965.361C166.664 963.792 167.289 962.289 168.4 961.182L199.449 930.133C202.22 927.368 204.344 924.023 205.669 920.338C206.993 916.654 207.484 912.723 207.108 908.826L205.392 890.668L187.139 888.987C183.242 888.612 179.311 889.104 175.627 890.429C171.943 891.753 168.598 893.876 165.832 896.645L134.818 927.695C133.711 928.805 132.208 929.431 130.639 929.435H91.2449L77.5018 943.166Z" fill="#222222" fill-opacity="0.5"/>
<path d="M45.695 1056.22C44.5238 1056.22 43.3791 1055.88 42.4057 1055.22C41.4322 1054.57 40.6738 1053.65 40.2264 1052.57C39.7791 1051.48 39.6628 1050.29 39.8925 1049.14C40.1221 1048 40.6873 1046.94 41.5164 1046.11L83.3375 1004.29C83.8835 1003.73 84.5366 1003.28 85.2586 1002.97C85.9807 1002.66 86.7574 1002.49 87.5433 1002.49C88.3291 1002.48 89.1085 1002.63 89.8359 1002.93C90.5633 1003.22 91.2241 1003.66 91.7798 1004.22C92.3355 1004.78 92.775 1005.44 93.0726 1006.16C93.3702 1006.89 93.5199 1007.67 93.5131 1008.46C93.5063 1009.24 93.343 1010.02 93.0328 1010.74C92.7226 1011.46 92.2717 1012.12 91.7064 1012.66L49.8854 1054.48C49.3357 1055.03 48.6826 1055.47 47.9635 1055.77C47.2445 1056.07 46.4736 1056.22 45.695 1056.22V1056.22Z" fill="#222222" fill-opacity="0.5"/>
<path d="M45.2216 1008.21C44.0519 1008.21 42.9085 1007.86 41.9358 1007.21C40.963 1006.57 40.2046 1005.64 39.7563 1004.56C39.3079 1003.48 39.1897 1002.29 39.4166 1001.14C39.6435 999.997 40.2054 998.943 41.0312 998.114L65.996 973.138C67.1058 972.026 68.6116 971.402 70.1822 971.4C71.7528 971.399 73.2595 972.022 74.3709 973.132C75.4822 974.242 76.1072 975.748 76.1083 977.318C76.1094 978.889 75.4866 980.395 74.3768 981.507L49.4001 1006.48C48.2909 1007.59 46.7883 1008.21 45.2216 1008.21V1008.21Z" fill="#222222" fill-opacity="0.5"/>
<path d="M93.2216 1056.22C92.0505 1056.22 90.9057 1055.88 89.9323 1055.22C88.9588 1054.57 88.2004 1053.65 87.7531 1052.57C87.3057 1051.48 87.1895 1050.29 87.4191 1049.14C87.6487 1048 88.2139 1046.94 89.043 1046.11L113.984 1021.15C114.53 1020.58 115.183 1020.13 115.905 1019.82C116.627 1019.51 117.404 1019.35 118.19 1019.34C118.976 1019.34 119.755 1019.49 120.483 1019.78C121.21 1020.08 121.871 1020.52 122.426 1021.08C122.982 1021.63 123.422 1022.29 123.719 1023.02C124.017 1023.75 124.167 1024.53 124.16 1025.31C124.153 1026.1 123.99 1026.88 123.679 1027.6C123.369 1028.32 122.918 1028.97 122.353 1029.52L97.412 1054.48C96.8623 1055.03 96.2092 1055.47 95.4901 1055.77C94.7711 1056.07 94.0002 1056.22 93.2216 1056.22Z" fill="#222222" fill-opacity="0.5"/>
<path d="M177.905 934.666C174.628 934.666 171.424 933.694 168.698 931.873C165.973 930.052 163.849 927.464 162.595 924.436C161.34 921.408 161.012 918.076 161.652 914.861C162.291 911.646 163.869 908.694 166.187 906.376C168.505 904.058 171.458 902.48 174.672 901.84C177.887 901.201 181.219 901.529 184.247 902.783C187.276 904.038 189.864 906.162 191.685 908.887C193.506 911.612 194.478 914.816 194.478 918.094C194.478 922.489 192.732 926.705 189.624 929.812C186.516 932.92 182.301 934.666 177.905 934.666V934.666ZM177.905 913.359C176.969 913.359 176.054 913.637 175.275 914.157C174.496 914.678 173.889 915.417 173.531 916.282C173.173 917.147 173.079 918.099 173.262 919.018C173.444 919.936 173.895 920.78 174.557 921.442C175.22 922.104 176.063 922.555 176.982 922.738C177.9 922.921 178.852 922.827 179.717 922.469C180.583 922.11 181.322 921.503 181.842 920.725C182.363 919.946 182.64 919.031 182.64 918.094C182.64 916.838 182.142 915.634 181.254 914.746C180.366 913.858 179.161 913.359 177.905 913.359Z" fill="#222222" fill-opacity="0.5"/>
<path fill-rule="evenodd" clip-rule="evenodd" d="M1645.54 781.543H1685V821H1645.54V781.543ZM1619 992.457H1711.54V1085H1619V992.457ZM1631.91 1006.09H1697.91V1072.09H1631.91V1006.09ZM1645.54 1019H1685V1058.46H1645.54V1019ZM1856.46 755H1949V847.543H1856.46V755ZM1870.09 767.913H1936.09V833.913H1870.09V767.913ZM1883 781.543H1922.46V821H1883V781.543ZM1751 926.457H1763.91V913.543H1751V926.457ZM1856.46 913.543H1870.09V899.913H1856.46V913.543ZM1895.91 860.457H1909.54V874.087H1895.91V860.457ZM1895.91 940.087V926.457H1883V940.087H1895.91ZM1790.46 979.543H1817V965.913V953H1804.09H1790.46H1777.54V965.913V979.543H1790.46ZM1751 965.913H1763.91V979.543H1751V965.913ZM1724.46 979.543H1738.09V1006.09H1724.46V979.543H1697.91V965.913H1711.54V953H1697.91V940.087H1711.54H1724.46H1751V926.457H1738.09V874.087H1724.46V913.543H1711.54V899.913H1697.91V887H1711.54V874.087H1697.91V860.457C1720.15 860.457 1742.39 860.457 1763.91 860.457V874.087H1751V899.913H1763.91V887H1777.54H1804.09V899.913H1777.54V926.457H1763.91V940.087V953H1724.46V965.913V979.543ZM1738.09 1072.09H1751V1058.46H1738.09V1072.09ZM1870.09 965.913H1843.54H1829.91H1817H1790.46V953V940.087H1777.54V926.457H1790.46V913.543H1804.09V940.087H1829.91V926.457H1817V913.543H1804.09V899.913H1817V887H1804.09V874.087H1777.54V833.913H1790.46V821H1777.54V808.087H1763.91V847.543H1751V808.087C1742.39 808.087 1733.07 808.087 1724.46 808.087V794.457H1738.09V781.543H1724.46V767.913H1738.09V755H1751V781.543H1763.91V767.913H1790.46V755H1804.09V767.913H1829.91V755H1843.54V781.543H1817V794.457H1829.91V808.087H1843.54V847.543H1829.91V860.457H1817V887H1829.91H1843.54V913.543H1856.46V926.457H1870.09V965.913ZM1895.91 965.913H1883V953H1895.91V965.913ZM1856.46 992.457H1870.09V1006.09H1856.46V992.457ZM1883 1045.54V1058.46H1909.54V1072.09H1936.09V1045.54H1922.46V1058.46H1909.54V1031.91H1895.91V1045.54H1883ZM1804.09 1045.54H1817V1031.91H1804.09V1045.54ZM1843.54 1072.09H1817V1085H1738.09H1724.46V1072.09V1019H1738.09V1045.54H1763.91V1058.46V1072.09H1804.09V1058.46H1790.46V1045.54H1777.54V1031.91H1751V1019H1763.91V1006.09H1751V992.457H1804.09V1006.09H1817V1019H1804.09V1006.09H1777.54V1019H1829.91V992.457H1817V979.543H1829.91V965.913V953H1856.46V940.087H1843.54V913.543H1829.91V887V874.087H1843.54V860.457H1856.46V887H1870.09V860.457H1883V887H1909.54V899.913H1883V913.543H1895.91V926.457H1909.54H1922.46V953H1936.09V965.913H1949V940.087H1936.09V926.457H1949V887H1936.09V860.457H1922.46V899.913H1936.09V913.543H1909.54V926.457V965.913V979.543H1895.91V965.913H1909.54H1922.46V992.457H1936.09H1949V1006.09V1019H1936.09V1006.09H1909.54V1019H1922.46V1031.91H1936.09H1949V1045.54V1072.09V1085H1936.09H1883H1870.09V1072.09H1856.46V1085H1843.54V1072.09ZM1843.54 1019H1884.43V979.543H1843.54V1019ZM1829.91 1058.46V1045.54H1817V1058.46H1829.91ZM1856.46 1045.54V1058.46H1843.54V1072.09H1856.46V1058.46H1870.09V1045.54H1856.46ZM1724.46 953V940.087V926.457H1711.54H1685V953H1645.54V940.087H1631.91V979.543H1619V926.457H1645.54V913.543H1631.91V899.913H1619V887H1631.91V874.087H1619V860.457H1685V874.087H1645.54V887H1658.46V899.913H1672.09V887H1685V913.543H1672.09V926.457H1685V913.543H1711.54V926.457V940.087V953H1724.46ZM1645.54 965.913H1658.46V979.543H1645.54V965.913ZM1724.46 821H1738.09V847.543H1724.46V821ZM1751 808.087H1763.91V794.457H1751V808.087ZM1777.54 808.087H1790.46V794.457H1804.09V781.543H1777.54V808.087ZM1817 860.457V847.543H1804.09V833.913H1790.46V860.457H1817ZM1829.91 847.543V833.913H1817V847.543H1829.91ZM1829.91 808.087H1804.09V821H1829.91V808.087ZM1619 755H1711.54V847.543H1619V755ZM1631.91 767.913H1697.91V833.913H1631.91V767.913Z" fill="#222222" fill-opacity="0.5"/>
<path d="M172 284.22L201.746 271.254L214.712 301L245.22 220.915C229.203 220.153 213.949 214.814 202.509 205.661L172 284.22Z" fill="#222222" fill-opacity="0.5"/>
<path d="M294.797 205.661C282.593 214.814 268.101 220.153 252.085 220.915L282.593 301L295.56 271.254L325.305 284.22L294.797 205.661Z" fill="#222222" fill-opacity="0.5"/>
<path d="M316.915 144.644C316.915 106.509 286.407 76 248.271 76C210.136 76 179.627 106.509 179.627 144.644C179.627 182.78 210.136 213.288 248.271 213.288C286.407 213.288 316.915 182.78 316.915 144.644ZM274.966 182.78L248.271 165.238L221.576 182.78L233.017 152.271L210.136 137.017H236.831L248.272 106.509L259.713 137.017H286.408L263.526 152.271L274.966 182.78Z" fill="#222222" fill-opacity="0.5"/>
</g>
<defs>
<clipPath id="clip0">
<rect width="1910" height="1053" fill="white"/>
</clipPath>
</defs>
</svg>
