<svg width="64" height="64" viewBox="0 0 64 64" fill="none" xmlns="http://www.w3.org/2000/svg">
<path d="M29.6414 49.5999H13.4687C11.9602 49.5982 10.514 48.9982 9.44737 47.9315C8.38073 46.8649 7.78075 45.4187 7.77905 43.9103V9.37905C7.77905 8.95471 7.94762 8.54774 8.24768 8.24768C8.54774 7.94762 8.95471 7.77905 9.37905 7.77905H37.6414C37.8787 7.779 38.1131 7.83173 38.3274 7.93342C38.5418 8.03511 38.7309 8.18321 38.881 8.367C39.0311 8.55078 39.1384 8.76565 39.1952 8.99604C39.2521 9.22642 39.2569 9.46656 39.2094 9.69905L31.2094 48.3199C31.1357 48.6813 30.9393 49.0061 30.6536 49.2393C30.3678 49.4726 30.0103 49.5999 29.6414 49.5999ZM10.9791 10.9791V43.9103C10.9799 44.5703 11.2425 45.203 11.7092 45.6697C12.1759 46.1364 12.8086 46.399 13.4687 46.3999H28.339L35.6766 10.9791H10.9791Z" fill="#303033"/>
<path d="M54.6208 56.2207H24C23.7627 56.2207 23.5284 56.168 23.314 56.0663C23.0996 55.9646 22.9105 55.8165 22.7604 55.6328C22.6103 55.449 22.503 55.2341 22.4462 55.0037C22.3894 54.7733 22.3845 54.5332 22.432 54.3007L23.8048 47.6799C23.8897 47.264 24.1362 46.8989 24.4903 46.6649C24.6656 46.549 24.8621 46.4688 25.0684 46.4288C25.2747 46.3888 25.4869 46.3899 25.6928 46.4319C25.8987 46.4739 26.0943 46.5561 26.2685 46.6737C26.4426 46.7913 26.5919 46.9421 26.7078 47.1174C26.8237 47.2927 26.9039 47.4892 26.9439 47.6955C26.9839 47.9018 26.9828 48.114 26.9408 48.3199L25.9808 53.0143H53.0368V20.0895C53.0364 19.7613 52.9712 19.4365 52.8449 19.1336C52.7186 18.8307 52.5338 18.5557 52.301 18.3244C52.0682 18.0931 51.792 17.91 51.4883 17.7857C51.1846 17.6613 50.8594 17.5982 50.5312 17.5999H36.272C35.8476 17.5999 35.4407 17.4313 35.1406 17.1313C34.8406 16.8312 34.672 16.4242 34.672 15.9999C34.672 15.5756 34.8406 15.1686 35.1406 14.8685C35.4407 14.5685 35.8476 14.3999 36.272 14.3999H50.5312C52.0396 14.4016 53.4858 15.0016 54.5525 16.0682C55.6191 17.1349 56.2191 18.581 56.2208 20.0895V54.6207C56.2208 55.045 56.0522 55.452 55.7522 55.7521C55.4521 56.0521 55.0451 56.2207 54.6208 56.2207Z" fill="#303033"/>
<path d="M15.9999 29.4399C15.5756 29.4399 15.1686 29.2713 14.8685 28.9712C14.5685 28.6712 14.3999 28.2642 14.3999 27.8399V20.0031C14.3999 18.5179 14.9899 17.0935 16.0401 16.0433C17.0903 14.9931 18.5147 14.4031 19.9999 14.4031C21.4851 14.4031 22.9095 14.9931 23.9597 16.0433C25.0099 17.0935 25.5999 18.5179 25.5999 20.0031V27.8399C25.5999 28.2642 25.4313 28.6712 25.1313 28.9712C24.8312 29.2713 24.4243 29.4399 23.9999 29.4399C23.5756 29.4399 23.1686 29.2713 22.8685 28.9712C22.5685 28.6712 22.3999 28.2642 22.3999 27.8399V19.9967C22.3999 19.3602 22.147 18.7497 21.697 18.2996C21.2469 17.8495 20.6364 17.5967 19.9999 17.5967C19.3634 17.5967 18.7529 17.8495 18.3028 18.2996C17.8528 18.7497 17.5999 19.3602 17.5999 19.9967V27.8399C17.5999 28.2642 17.4313 28.6712 17.1313 28.9712C16.8312 29.2713 16.4242 29.4399 15.9999 29.4399Z" fill="#7D50F9"/>
<path d="M23.9999 24.3201H15.9999C15.5756 24.3201 15.1686 24.1515 14.8685 23.8515C14.5685 23.5514 14.3999 23.1445 14.3999 22.7201C14.3999 22.2958 14.5685 21.8888 14.8685 21.5887C15.1686 21.2887 15.5756 21.1201 15.9999 21.1201H23.9999C24.4243 21.1201 24.8312 21.2887 25.1313 21.5887C25.4313 21.8888 25.5999 22.2958 25.5999 22.7201C25.5999 23.1445 25.4313 23.5514 25.1313 23.8515C24.8312 24.1515 24.4243 24.3201 23.9999 24.3201Z" fill="#7D50F9"/>
<path d="M38.4671 49.6C38.1503 49.6006 37.8404 49.5071 37.5767 49.3313C37.3131 49.1555 37.1075 48.9054 36.9862 48.6127C36.8649 48.32 36.8332 47.9978 36.8952 47.6871C36.9571 47.3763 37.11 47.091 37.3343 46.8672L44.1375 40.064H38.4671C38.0428 40.064 37.6358 39.8954 37.3358 39.5954C37.0357 39.2953 36.8671 38.8884 36.8671 38.464C36.8671 38.0397 37.0357 37.6327 37.3358 37.3326C37.6358 37.0326 38.0428 36.864 38.4671 36.864H47.9999C48.3168 36.8634 48.6267 36.957 48.8903 37.1328C49.154 37.3085 49.3595 37.5586 49.4808 37.8513C49.6022 38.1441 49.6339 38.4662 49.5719 38.7769C49.5099 39.0877 49.3571 39.373 49.1327 39.5968L39.5967 49.1296C39.2974 49.4299 38.8911 49.5991 38.4671 49.6Z" fill="#7D50F9"/>
<path d="M48.0001 49.6001C47.7896 49.6 47.5812 49.5584 47.3868 49.4777C47.1924 49.397 47.0159 49.2787 46.8673 49.1297L42.1025 44.3649C41.811 44.0631 41.6497 43.6589 41.6534 43.2394C41.657 42.8199 41.8253 42.4186 42.122 42.1219C42.4186 41.8253 42.8199 41.657 43.2394 41.6534C43.6589 41.6497 44.0631 41.811 44.3649 42.1025L49.1329 46.8673C49.3572 47.091 49.51 47.3764 49.572 47.6871C49.634 47.9979 49.6023 48.32 49.481 48.6127C49.3596 48.9055 49.1541 49.1556 48.8905 49.3313C48.6268 49.5071 48.3169 49.6006 48.0001 49.6001Z" fill="#7D50F9"/>
<path d="M45.6161 35.2991H40.9601C40.5358 35.2991 40.1288 35.1306 39.8287 34.8305C39.5287 34.5304 39.3601 34.1235 39.3601 33.6991C39.3601 33.2748 39.5287 32.8678 39.8287 32.5678C40.1288 32.2677 40.5358 32.0991 40.9601 32.0991H45.6321C46.0565 32.0991 46.4634 32.2677 46.7635 32.5678C47.0635 32.8678 47.2321 33.2748 47.2321 33.6991C47.2321 34.1235 47.0635 34.5304 46.7635 34.8305C46.4634 35.1306 46.0565 35.2991 45.6321 35.2991H45.6161Z" fill="#7D50F9"/>
</svg>
