<svg width="53" height="53" viewBox="0 0 53 53" fill="none" xmlns="http://www.w3.org/2000/svg">
<g clip-path="url(#clip0)">
<ellipse cx="27.2911" cy="34.8059" rx="22.5448" ry="12.6567" fill="#7D50F9"/>
<path d="M48.667 16.3715C49.2405 14.651 49.5275 12.8675 49.5275 11.0203C49.5275 8.5571 48.9854 6.24247 47.9027 4.07666C45.6312 4.07666 43.6246 4.4911 41.8829 5.31898C40.1421 6.14709 38.1568 7.43169 35.928 9.1728C33.1254 8.4934 30.1518 8.1537 27.0098 8.1537C23.5697 8.1537 20.2889 8.52553 17.1677 9.26862C14.8959 7.48479 12.8893 6.17397 11.1481 5.33505C9.4069 4.49612 7.38979 4.07677 5.09636 4.07677C4.01345 6.24258 3.47206 8.55732 3.47206 11.0204C3.47206 12.8892 3.75854 14.6941 4.33196 16.435C1.4438 19.8114 0 24.0155 0 29.0481C0 33.4653 0.657976 36.979 1.97471 39.5912C2.67564 40.9708 3.58841 42.1919 4.71393 43.2539C5.83901 44.3153 7.12373 45.1758 8.56775 45.8343C10.012 46.492 11.4662 47.0392 12.9315 47.4741C14.3967 47.9092 16.0157 48.228 17.7888 48.4289C19.5618 48.6315 21.1278 48.764 22.4867 48.8282C23.8456 48.8911 25.3529 48.9233 27.0097 48.9233C28.9629 48.9233 30.7353 48.8751 32.3286 48.7802C33.9214 48.6848 35.7417 48.4508 37.791 48.0801C39.84 47.7082 41.6451 47.2035 43.2061 46.5668C44.7668 45.93 46.2642 45.0167 47.6974 43.8279C49.1306 42.6383 50.2503 41.2265 51.0576 39.5913C52.3522 36.9582 53.0001 33.4436 53.0001 29.0482C52.9993 23.9943 51.5554 19.7689 48.667 16.3715ZM44.8462 39.5427C44.1666 40.9339 43.3065 42.0265 42.2662 42.8236C41.2255 43.62 39.9304 44.2568 38.3805 44.7352C36.8298 45.2128 35.3442 45.5258 33.9214 45.674C32.4981 45.8228 30.9167 45.8969 29.1751 45.8969H23.824C22.0829 45.8969 20.5007 45.8228 19.0782 45.674C17.6556 45.5258 16.1693 45.2128 14.6191 44.7352C13.0694 44.2568 11.7743 43.62 10.7336 42.8236C9.69282 42.0264 8.83292 40.9339 8.15342 39.5427C7.47402 38.1514 7.13421 36.5221 7.13421 34.6537C7.13421 32.1049 7.86682 29.9388 9.33215 28.1559C10.7974 26.3721 12.7826 25.4805 15.288 25.4805C16.2014 25.4805 18.2717 25.7033 21.4992 26.1493C23.0067 26.3828 24.6738 26.4996 26.4997 26.4996C28.3261 26.4996 29.9929 26.3831 31.5002 26.1493C34.7708 25.7032 36.8404 25.4805 37.7116 25.4805C40.2169 25.4805 42.2021 26.3725 43.6673 28.1559C45.1326 29.9395 45.8648 32.1049 45.8648 34.6537C45.8648 36.5224 45.525 38.1526 44.8462 39.5427Z" fill="#303033"/>
<path d="M18.6163 29.6211C17.9686 28.8987 17.1992 28.5376 16.3071 28.5376C15.4149 28.5376 14.6453 28.8992 13.9977 29.6211C13.3505 30.3426 12.8936 31.1498 12.6284 32.0407C12.3625 32.9334 12.23 33.8037 12.23 34.6536C12.23 35.5026 12.3628 36.3731 12.6284 37.2657C12.8933 38.1571 13.3499 38.9638 13.9977 39.6853C14.6457 40.4076 15.4149 40.7688 16.3071 40.7688C17.1992 40.7688 17.9689 40.4069 18.6163 39.6853C19.2638 38.9637 19.7204 38.1571 19.9857 37.2657C20.2512 36.3731 20.3841 35.5026 20.3841 34.6536C20.3841 33.8045 20.2515 32.9334 19.9857 32.0407C19.7203 31.1501 19.2641 30.3433 18.6163 29.6211Z" fill="#303033"/>
<path d="M39.0012 29.6211C38.3537 28.8987 37.5841 28.5376 36.6923 28.5376C35.8008 28.5376 35.0307 28.8992 34.3829 29.6211C33.7354 30.3426 33.2789 31.1498 33.0139 32.0407C32.7479 32.9334 32.615 33.8037 32.615 34.6536C32.615 35.5026 32.7479 36.3731 33.0139 37.2657C33.2789 38.1571 33.7355 38.9638 34.3829 39.6853C35.0308 40.4076 35.8008 40.7688 36.6923 40.7688C37.5841 40.7688 38.3538 40.4069 39.0012 39.6853C39.6484 38.9637 40.1052 38.1571 40.3709 37.2657C40.6363 36.3731 40.7691 35.5026 40.7691 34.6536C40.7691 33.8045 40.6363 32.9334 40.3709 32.0407C40.1053 31.1501 39.6484 30.3433 39.0012 29.6211Z" fill="#303033"/>
</g>
<defs>
<clipPath id="clip0">
<rect width="53" height="53" fill="white"/>
</clipPath>
</defs>
</svg>
