<svg width="36" height="54" viewBox="0 0 36 54" fill="none" xmlns="http://www.w3.org/2000/svg">
<path d="M12.3748 27.2251L17.0998 18.0001H12.3748L23.9623 6.9751L18.8998 15.7501H23.6248L12.3748 27.2251Z" fill="#7D50F9"/>
<path d="M36 18C36 8.1 27.9 0 18 0C8.1 0 0 8.1 0 18C0 24.8625 3.9375 31.1625 10.125 34.2V40.5C8.8875 40.5 7.875 41.5125 7.875 42.75V45C7.875 46.2375 8.8875 47.25 10.125 47.25H11.25V48.375C11.25 49.6125 12.2625 50.625 13.5 50.625H14.625V51.75C14.625 52.9875 15.6375 54 16.875 54H19.125C20.3625 54 21.375 52.9875 21.375 51.75V50.625H22.5C23.7375 50.625 24.75 49.6125 24.75 48.375V47.25H25.875C27.1125 47.25 28.125 46.2375 28.125 45V42.75C28.125 41.5125 27.1125 40.5 25.875 40.5V34.2C32.0625 31.1625 36 24.8625 36 18ZM19.125 51.75H16.875V50.625H19.125V51.75ZM22.5 48.375H13.5V47.25H22.5V48.375ZM25.875 45H10.125V42.75H25.875V45ZM24.3 32.4L23.625 32.7375V40.5H19.125V33.75H16.875V40.5H12.375V32.7375L11.7 32.4C5.9625 29.925 2.25 24.3 2.25 18C2.25 9.3375 9.3375 2.25 18 2.25C26.6625 2.25 33.75 9.3375 33.75 18C33.75 24.3 30.0375 29.925 24.3 32.4Z" fill="#303033"/>
</svg>
