<svg width="53" height="53" viewBox="0 0 53 53" fill="none" xmlns="http://www.w3.org/2000/svg">
<g clip-path="url(#clip0)">
<path d="M26.5 52.999C41.1355 52.999 53 41.1346 53 26.499C53 11.8635 41.1355 -0.000976562 26.5 -0.000976562C11.8645 -0.000976562 0 11.8635 0 26.499C0 41.1346 11.8645 52.999 26.5 52.999Z" fill="#303033"/>
<path d="M42.3335 28.632V39.5574H35.9993V29.3642C35.9993 26.8048 35.0847 25.057 32.7913 25.057C31.0411 25.057 30.0014 26.2337 29.5422 27.3731C29.3755 27.7803 29.3325 28.3457 29.3325 28.9168V39.5569H22.9978C22.9978 39.5569 23.0828 22.293 22.9978 20.506H29.3329V23.2057C29.3202 23.2269 29.3022 23.2477 29.2909 23.268H29.3329V23.2057C30.1747 21.9104 31.676 20.0586 35.0417 20.0586C39.2092 20.0586 42.3335 22.7815 42.3335 28.632ZM16.3711 11.3228C14.2043 11.3228 12.7866 12.7451 12.7866 14.6139C12.7866 16.443 14.1632 17.9064 16.288 17.9064H16.3291C18.5384 17.9064 19.9121 16.443 19.9121 14.6139C19.8701 12.7451 18.5384 11.3228 16.3711 11.3228ZM13.1631 39.5574H19.4955V20.506H13.1631V39.5574Z" fill="#7D50F9"/>
</g>
<defs>
<clipPath id="clip0">
<rect width="53" height="53" fill="white"/>
</clipPath>
</defs>
</svg>
