<svg width="27" height="26" viewBox="0 0 27 26" fill="none" xmlns="http://www.w3.org/2000/svg">
<g clip-path="url(#clip0)">
<path d="M13.0586 25.9931C15.6168 25.9943 18.118 25.2368 20.2457 23.8165C22.3734 22.3962 24.0322 20.3769 25.0122 18.0139C25.9923 15.6508 26.2496 13.0502 25.7517 10.5409C25.2538 8.03166 24.0229 5.72638 22.2148 3.91662C20.4067 2.10687 18.1026 0.873919 15.5937 0.373691C13.0849 -0.126537 10.4841 0.128423 8.12015 1.10633C5.75622 2.08424 3.73536 3.74117 2.31312 5.8676C0.890886 7.99403 0.131146 10.4944 0.129978 13.0527C0.132158 16.482 1.4946 19.7704 3.91839 22.1964C6.34217 24.6224 9.62932 25.9878 13.0586 25.9931V25.9931ZM13.0699 1.33662C15.3883 1.33768 17.6543 2.02619 19.5813 3.3151C21.5084 4.604 23.01 6.4354 23.8962 8.57771C24.7825 10.72 25.0135 13.077 24.5602 15.3506C24.1069 17.6243 22.9895 19.7124 21.3494 21.351C19.7093 22.9896 17.6202 24.1051 15.3461 24.5563C13.0721 25.0076 10.7153 24.7744 8.5738 23.8862C6.4323 22.998 4.60227 21.4947 3.31512 19.5665C2.02798 17.6382 1.34153 15.3716 1.34259 13.0532C1.34776 9.94551 2.58531 6.96673 4.78379 4.77025C6.98227 2.57377 9.96218 1.33894 13.0699 1.33662Z" fill="#7D50F9"/>
<path d="M10.9436 19.2046C11.0573 19.3182 11.2113 19.382 11.372 19.3821C11.5327 19.3822 11.6868 19.3185 11.8006 19.205L17.0576 13.9527C17.1712 13.8391 17.2351 13.685 17.2351 13.5243C17.2352 13.3637 17.1715 13.2095 17.058 13.0958L11.8057 7.83873C11.6909 7.73158 11.5389 7.6732 11.3818 7.6759C11.2247 7.6786 11.0748 7.74216 10.9637 7.8532C10.8525 7.96423 10.7888 8.11407 10.786 8.27115C10.7832 8.42822 10.8414 8.58027 10.9484 8.69525L15.7724 13.5237L10.944 18.3477C10.8304 18.4613 10.7666 18.6154 10.7665 18.776C10.7664 18.9367 10.8301 19.0908 10.9436 19.2046V19.2046Z" fill="#7D50F9"/>
</g>
<defs>
<clipPath id="clip0">
<rect width="25.8691" height="25.8691" fill="white" transform="translate(25.9932 25.999) rotate(-179.974)"/>
</clipPath>
</defs>
</svg>
