<svg width="54" height="54" viewBox="0 0 54 54" fill="none" xmlns="http://www.w3.org/2000/svg">
<g clip-path="url(#clip0)">
<path d="M52.851 26.2492C52.7812 21.0576 51.1736 16.0033 48.2313 11.7254C45.289 7.44748 41.1442 4.13814 36.3211 2.21585C31.498 0.293565 26.2131 -0.155337 21.1349 0.925915C16.0567 2.00717 11.4131 4.57001 7.79142 8.29035C4.16974 12.0107 1.73259 16.7215 0.788185 21.8269C-0.156227 26.9324 0.434517 32.2032 2.48571 36.9729C4.5369 41.7426 7.95641 45.797 12.3118 48.6233C16.6672 51.4496 21.7629 52.9209 26.9545 52.8511C33.9138 52.75 40.5488 49.8924 45.4037 44.9052C50.2586 39.9181 52.9369 33.2087 52.851 26.2492V26.2492ZM2.81349 26.9216C2.75026 22.2167 4.08363 17.5987 6.64496 13.6516C9.20628 9.70452 12.8805 6.60559 17.2031 4.7467C21.5257 2.88781 26.3024 2.35245 30.9292 3.20832C35.556 4.06419 39.8251 6.27285 43.1967 9.55501C46.5682 12.8372 48.8908 17.0454 49.8707 21.6475C50.8506 26.2497 50.4438 31.0391 48.7017 35.41C46.9596 39.7809 43.9605 43.5371 40.0837 46.2036C36.2068 48.8701 31.6264 50.327 26.9215 50.3903C20.6146 50.4674 14.5347 48.0399 10.0152 43.6403C5.49578 39.2407 2.90583 33.2282 2.81349 26.9216Z" fill="#303033"/>
<path d="M38.568 26.7674C38.7953 26.5336 38.9205 26.2191 38.9162 25.8931C38.9118 25.567 38.7782 25.256 38.5446 25.0284L27.7376 14.508C27.5038 14.2807 27.1893 14.1554 26.8633 14.1598C26.5372 14.1642 26.2262 14.2978 25.9986 14.5313L15.4782 25.3384C15.2639 25.5745 15.1498 25.8846 15.1597 26.2033C15.1696 26.522 15.3028 26.8244 15.5313 27.0468C15.7597 27.2692 16.0656 27.3943 16.3845 27.3956C16.7033 27.3969 17.0102 27.2745 17.2405 27.054L26.9032 17.1282L36.829 26.7908C37.0628 27.0181 37.3773 27.1433 37.7033 27.1389C38.0294 27.1346 38.3404 27.0009 38.568 26.7674Z" fill="#7D50F9"/>
<path d="M38.568 35.7674C38.7953 35.5336 38.9205 35.2191 38.9162 34.8931C38.9118 34.567 38.7782 34.256 38.5446 34.0284L27.7376 23.508C27.5038 23.2807 27.1893 23.1554 26.8633 23.1598C26.5372 23.1642 26.2262 23.2978 25.9986 23.5313L15.4781 34.3384C15.2639 34.5745 15.1498 34.8846 15.1597 35.2033C15.1696 35.522 15.3028 35.8244 15.5313 36.0468C15.7597 36.2692 16.0656 36.3943 16.3844 36.3956C16.7033 36.397 17.0102 36.2745 17.2405 36.054L26.9031 26.1282L36.829 35.7908C37.0628 36.0181 37.3773 36.1433 37.7033 36.139C38.0294 36.1346 38.3404 36.0009 38.568 35.7674Z" fill="#7D50F9"/>
</g>
<defs>
<clipPath id="clip0">
<rect width="52.5031" height="52.5031" fill="white" transform="translate(52.4983) rotate(89.2301)"/>
</clipPath>
</defs>
</svg>
