<svg width="52" height="52" viewBox="0 0 52 52" fill="none" xmlns="http://www.w3.org/2000/svg">
<ellipse cx="26.7797" cy="25.9442" rx="22.7709" ry="21.4904" fill="#7D50F9"/>
<path fill-rule="evenodd" clip-rule="evenodd" d="M26 52C11.6406 52 0 40.3594 0 26C0 11.6406 11.6406 0 26 0C40.3594 0 52 11.6406 52 26C52 40.3594 40.3594 52 26 52ZM26.857 40.4652C35.3811 40.4617 42.3139 33.5273 42.3173 25.005C42.319 20.874 40.7123 16.9897 37.7934 14.0675C34.8745 11.1452 30.9926 9.53512 26.8568 9.53333C18.3352 9.53333 11.3997 16.4685 11.3962 24.9927C11.3952 27.7176 12.107 30.3772 13.46 32.7219L11.2667 40.7333L19.4624 38.5835C21.7206 39.8151 24.2631 40.4643 26.8506 40.4652H26.857Z" fill="#303033"/>
<path fill-rule="evenodd" clip-rule="evenodd" d="M20.4365 33.8466L16.2452 34.9457L17.3639 30.8606L17.1006 30.4418C15.9921 28.6793 15.4066 26.6423 15.4075 24.5506C15.4099 18.447 20.3777 13.4814 26.4861 13.4814C29.4439 13.4825 32.2244 14.6354 34.3152 16.7279C36.406 18.8204 37.5567 21.6016 37.5556 24.5595C37.5531 30.6635 32.5854 35.6296 26.4817 35.6296H26.4773C24.4901 35.6288 22.5411 35.0951 20.8408 34.0865L20.4365 33.8466ZM33.194 27.7274C33.1108 27.5886 32.8889 27.5054 32.556 27.3387C32.2231 27.1721 30.5864 26.3672 30.2812 26.256C29.9761 26.145 29.754 26.0895 29.5322 26.4225C29.3103 26.7557 28.6722 27.5054 28.478 27.7274C28.2839 27.9495 28.0896 27.9773 27.7568 27.8107C27.4239 27.6441 26.3512 27.2928 25.0797 26.159C24.0899 25.2765 23.4218 24.1868 23.2276 23.8536C23.0334 23.5204 23.2069 23.3403 23.3736 23.1744C23.5233 23.0253 23.7065 22.7856 23.873 22.5914C24.0394 22.3971 24.0949 22.2582 24.2058 22.0363C24.3168 21.8141 24.2614 21.6198 24.1781 21.4532C24.0949 21.2866 23.429 19.6485 23.1517 18.9822C22.8814 18.3333 22.607 18.4212 22.4026 18.4109C22.2086 18.4012 21.9865 18.3992 21.7646 18.3992C21.5427 18.3992 21.182 18.4824 20.8769 18.8156C20.5717 19.1488 19.7116 19.9539 19.7116 21.5919C19.7116 23.2299 20.9046 24.8124 21.0711 25.0345C21.2375 25.2566 23.4185 28.6179 26.7581 30.0594C27.5524 30.4023 28.1724 30.6071 28.656 30.7604C29.4535 31.0138 30.1792 30.978 30.7528 30.8923C31.3925 30.7968 32.7224 30.0873 32.9999 29.31C33.2772 28.5325 33.2772 27.8662 33.194 27.7274Z" fill="#303033"/>
</svg>
