<svg width="512" height="512" viewBox="0 0 512 512" fill="none" xmlns="http://www.w3.org/2000/svg">
<circle cx="256" cy="261" r="221" fill="#7D50F9"/>
<path d="M315.015 69.9987C336.575 106.098 346.165 149.707 340.585 191.597C338.794 205.027 323.395 320.479 321.325 335.995H190.667C188.622 320.66 173.751 209.17 171.407 191.597C165.827 149.707 175.417 106.098 196.977 69.9987H315.015Z" fill="#EEFAFF"/>
<path d="M255.996 215.996C278.087 215.996 295.995 198.088 295.995 175.997C295.995 153.906 278.087 135.998 255.996 135.998C233.905 135.998 215.997 153.906 215.997 175.997C215.997 198.088 233.905 215.996 255.996 215.996Z" fill="#91DEF5"/>
<path d="M130.368 422.163C130.398 422.223 130.418 422.293 130.438 422.353C131.628 422.243 132.778 421.993 133.998 421.993C156.088 421.993 173.997 439.903 173.997 461.993C196.087 461.993 215.997 444.083 215.997 421.993V375.994H295.995V421.993C295.995 444.083 315.905 461.993 337.995 461.993C337.995 439.903 355.904 421.993 377.994 421.993C379.214 421.993 380.364 422.243 381.554 422.353C381.574 422.293 381.594 422.223 381.624 422.163C390.754 396.274 418.823 378.394 448.703 382.614C478.203 386.774 502.502 416.333 501.992 442.993C501.382 474.412 473.503 501.992 439.993 501.992H71.9989C37.6094 501.992 9.99988 473.212 9.99988 441.993C9.99988 415.643 34.1695 386.724 63.289 382.614C93.1686 378.394 121.238 396.274 130.368 422.163Z" fill="black"/>
<path d="M390.724 299.845C394.124 303.815 395.994 308.865 395.994 314.095C395.994 326.195 386.194 335.995 374.094 335.995H321.325L335.995 235.996L390.724 299.845Z" fill="black"/>
<path d="M321.325 335.995L315.995 375.994C291.594 375.994 224.44 375.994 195.997 375.994L190.667 335.995H321.325Z" fill="black"/>
<path d="M315.015 69.9986H196.977C211.527 45.619 231.536 24.6793 255.996 9.99957C280.456 24.6793 300.465 45.619 315.015 69.9986Z" fill="black"/>
<path d="M190.667 335.995H137.898C125.798 335.995 115.998 326.195 115.998 314.095C115.998 308.865 117.868 303.815 121.268 299.845L175.997 235.996L190.667 335.995Z" fill="black"/>
<path d="M255.996 225.996C283.566 225.996 305.995 203.567 305.995 175.997C305.995 148.427 283.566 125.998 255.996 125.998C228.426 125.998 205.997 148.427 205.997 175.997C205.997 203.567 228.426 225.996 255.996 225.996ZM255.996 145.997C272.538 145.997 285.996 159.455 285.996 175.997C285.996 192.539 272.538 205.997 255.996 205.997C239.454 205.997 225.997 192.539 225.997 175.997C225.997 159.455 239.454 145.997 255.996 145.997Z" fill="black"/>
<path d="M182.725 450.759C177.829 429.517 159.363 413.405 136.983 412.081C123.93 385.102 93.4345 368.257 61.892 372.712C28.9215 377.366 0 409.739 0 441.993C0 478.221 31.5635 511.992 71.9989 511.992H210.997C216.519 511.992 220.997 507.515 220.997 501.992C220.997 496.469 216.519 491.992 210.997 491.992H71.9989C44.2983 491.992 19.9997 468.628 19.9997 441.993C19.9997 419.802 41.7174 395.758 64.687 392.516C84.9967 389.646 105.275 399.15 115.919 415.39C109.487 417.887 103.581 421.7 98.6415 426.648C94.7395 430.556 94.7445 436.888 98.6525 440.791C100.604 442.74 103.161 443.714 105.717 443.714C108.279 443.714 110.84 442.735 112.793 440.78C117.837 435.728 124.43 432.331 133.997 431.994C150.539 431.994 163.996 445.452 163.996 461.994C163.996 467.516 168.474 471.993 173.996 471.993C202.183 471.993 225.995 449.097 225.995 421.994V385.995H285.995V421.994C285.995 449.097 309.807 471.993 337.994 471.993C343.516 471.993 347.994 467.516 347.994 461.994C347.994 445.452 361.451 431.994 377.974 431.994C386.992 432.274 393.874 435.449 399.197 440.78C403.083 444.672 409.413 444.709 413.339 440.791C417.246 436.889 417.251 430.557 413.35 426.648C408.41 421.7 402.504 417.887 396.071 415.39C406.713 399.152 426.987 389.649 447.306 392.516C470.708 395.816 492.424 420.253 491.993 442.799C491.474 469.464 467.662 491.992 439.992 491.992H300.995C295.473 491.992 290.995 496.469 290.995 501.992C290.995 507.515 295.473 511.992 300.995 511.992H439.993C478.296 511.992 511.265 480.483 511.99 443.184C512.617 410.38 483.696 377.45 450.101 372.712C418.543 368.258 388.058 385.111 375.009 412.081C352.63 413.404 334.163 429.517 329.267 450.759C316.153 447.002 305.995 435.164 305.995 421.993V385.994H315.995C321.008 385.994 325.245 382.283 325.907 377.315L330.084 345.994H374.094C391.684 345.994 405.994 331.685 405.994 314.095C405.994 306.49 403.268 299.119 398.317 293.337L345.346 231.539L350.496 192.917C360.674 116.519 323.504 38.8541 261.142 1.42573C257.974 -0.475243 254.017 -0.475243 250.849 1.42573C188.473 38.8621 151.32 116.535 161.495 192.92L166.645 231.54L113.672 293.341C108.724 299.12 105.998 306.49 105.998 314.095C105.998 331.685 120.309 345.994 137.898 345.994H181.908L186.085 377.315C186.747 382.283 190.984 385.994 195.997 385.994H205.997V421.993C205.997 435.164 195.839 447.002 182.725 450.759V450.759ZM383.129 306.35C384.977 308.508 385.994 311.258 385.994 314.096C385.994 320.658 380.655 325.996 374.094 325.996H332.751L341.8 258.135L383.129 306.35ZM255.996 21.8084C271.229 31.8213 284.891 44.7971 296.283 59.9988H215.709C227.1 44.7971 240.763 31.8213 255.996 21.8084ZM202.765 79.9985H309.228C328.055 113.84 335.668 152.776 330.673 190.275L312.571 325.995H199.419L181.32 190.277C176.324 152.777 183.937 113.842 202.765 79.9985V79.9985ZM137.898 325.995C131.336 325.995 125.998 320.657 125.998 314.095C125.998 311.258 127.016 308.507 128.86 306.353L170.192 258.135L179.241 325.995H137.898ZM202.086 345.994H309.905L307.24 365.994H204.753L202.086 345.994Z" fill="black"/>
<path d="M255.996 511.992C261.519 511.992 265.996 507.515 265.996 501.992C265.996 496.469 261.519 491.992 255.996 491.992C250.473 491.992 245.996 496.469 245.996 501.992C245.996 507.515 250.473 511.992 255.996 511.992Z" fill="black"/>
</svg>
