<svg width="1910" height="1053" viewBox="0 0 1910 1053" fill="none" xmlns="http://www.w3.org/2000/svg">
<path d="M370.291 680.16C371.058 680.16 371.834 679.942 372.518 679.481C377.055 676.434 381.539 673.621 385.848 671.121C387.758 670.012 388.408 667.563 387.299 665.653C386.186 663.742 383.742 663.086 381.832 664.199C377.373 666.789 372.738 669.695 368.057 672.84C366.223 674.071 365.734 676.559 366.967 678.391C367.738 679.539 369.004 680.16 370.291 680.16Z" fill="#222222" fill-opacity="0.5"/>
<path d="M428.392 656.402C431.947 656.684 434.692 657.774 436.553 659.637C437.24 660.324 437.822 661.129 438.285 662.031C438.994 663.41 440.394 664.203 441.848 664.203C442.463 664.203 443.086 664.062 443.672 663.762C445.637 662.75 446.412 660.34 445.402 658.375C444.558 656.734 443.484 655.254 442.213 653.984C438.973 650.734 434.537 648.867 429.029 648.426C426.768 648.234 424.9 649.898 424.723 652.098C424.547 654.297 426.192 656.226 428.392 656.402Z" fill="#222222" fill-opacity="0.5"/>
<path d="M398.006 664.226C398.57 664.226 399.141 664.109 399.686 663.855C404.83 661.473 409.66 659.621 414.041 658.359C416.164 657.746 417.389 655.531 416.777 653.406C416.162 651.285 413.938 650.058 411.826 650.672C407.053 652.047 401.838 654.043 396.322 656.597C394.318 657.527 393.445 659.902 394.375 661.91C395.051 663.367 396.496 664.226 398.006 664.226Z" fill="#222222" fill-opacity="0.5"/>
<path d="M344.684 699.344C345.58 699.344 346.48 699.043 347.225 698.43C351.367 695.016 355.549 691.723 359.654 688.641C361.42 687.312 361.777 684.805 360.449 683.039C359.127 681.274 356.619 680.918 354.85 682.242C350.648 685.398 346.373 688.766 342.139 692.258C340.434 693.66 340.19 696.184 341.594 697.887C342.385 698.848 343.529 699.344 344.684 699.344Z" fill="#222222" fill-opacity="0.5"/>
<path d="M267.326 846.688C261.723 847.465 257.326 846.945 254.342 845.18C252.44 844.062 249.984 844.688 248.863 846.59C247.738 848.492 248.369 850.945 250.272 852.07C253.606 854.039 257.75 855.039 262.59 855.039C264.414 855.039 266.377 854.894 268.428 854.609C270.615 854.308 272.142 852.285 271.84 850.098C271.533 847.91 269.51 846.352 267.326 846.688Z" fill="#222222" fill-opacity="0.5"/>
<path d="M322.664 819.621C318.223 822.777 313.814 825.726 309.558 828.391C307.688 829.562 307.119 832.031 308.291 833.902C309.051 835.117 310.354 835.781 311.686 835.781C312.41 835.781 313.144 835.586 313.805 835.172C318.19 832.425 322.73 829.387 327.297 826.144C329.098 824.863 329.522 822.367 328.242 820.566C326.961 818.769 324.467 818.34 322.664 819.621Z" fill="#222222" fill-opacity="0.5"/>
<path d="M295.965 836.234C291.01 838.828 286.258 841 281.842 842.695C279.777 843.484 278.748 845.801 279.539 847.863C280.148 849.453 281.666 850.43 283.274 850.43C283.75 850.43 284.234 850.344 284.705 850.164C289.41 848.359 294.447 846.058 299.676 843.32C301.633 842.297 302.389 839.879 301.365 837.922C300.342 835.969 297.928 835.203 295.965 836.234Z" fill="#222222" fill-opacity="0.5"/>
<path d="M370.801 778.551C367.043 782.301 363.199 786 359.375 789.547C357.756 791.051 357.66 793.582 359.162 795.199C359.951 796.051 361.022 796.48 362.096 796.48C363.07 796.48 364.045 796.129 364.816 795.414C368.711 791.801 372.625 788.035 376.453 784.215C378.016 782.652 378.02 780.121 376.459 778.558C374.9 776.988 372.367 776.996 370.801 778.551Z" fill="#222222" fill-opacity="0.5"/>
<path d="M347.551 800.094C343.496 803.571 339.381 806.953 335.318 810.149C333.582 811.516 333.281 814.031 334.646 815.766C335.438 816.77 336.609 817.293 337.793 817.293C338.66 817.293 339.531 817.012 340.264 816.438C344.414 813.172 348.617 809.719 352.758 806.172C354.434 804.735 354.629 802.207 353.192 800.531C351.754 798.848 349.232 798.66 347.551 800.094Z" fill="#222222" fill-opacity="0.5"/>
<path d="M434.086 702.187C432.135 701.148 429.711 701.898 428.68 703.851C426.373 708.207 423.717 712.773 420.785 717.422C419.606 719.289 420.166 721.758 422.033 722.937C422.695 723.355 423.434 723.555 424.164 723.555C425.492 723.555 426.791 722.894 427.551 721.687C430.59 716.871 433.348 712.129 435.75 707.593C436.783 705.641 436.039 703.223 434.086 702.187Z" fill="#222222" fill-opacity="0.5"/>
<path d="M411.976 730.5C409.022 734.633 405.824 738.887 402.469 743.137C401.102 744.871 401.396 747.387 403.131 748.754C403.865 749.332 404.738 749.613 405.608 749.613C406.789 749.613 407.961 749.09 408.75 748.09C412.182 743.742 415.457 739.391 418.484 735.156C419.77 733.356 419.354 730.859 417.557 729.574C415.756 728.285 413.262 728.707 411.976 730.5Z" fill="#222222" fill-opacity="0.5"/>
<path d="M392.389 755.343C388.984 759.293 385.428 763.265 381.816 767.144C380.31 768.761 380.402 771.293 382.02 772.801C382.789 773.515 383.768 773.871 384.744 773.871C385.814 773.871 386.885 773.441 387.672 772.597C391.354 768.641 394.978 764.593 398.451 760.562C399.892 758.891 399.705 756.363 398.031 754.922C396.359 753.484 393.834 753.672 392.389 755.343Z" fill="#222222" fill-opacity="0.5"/>
<path d="M443.971 671.91C441.797 671.598 439.744 673.059 439.398 675.242C438.725 679.527 437.32 684.41 435.225 689.754C434.418 691.813 435.434 694.133 437.49 694.938C437.969 695.125 438.463 695.215 438.947 695.215C440.545 695.215 442.055 694.25 442.674 692.676C444.98 686.789 446.537 681.34 447.301 676.485C447.644 674.301 446.152 672.254 443.971 671.91Z" fill="#222222" fill-opacity="0.5"/>
<path d="M249.156 833.598C249.156 829.867 249.912 825.453 251.404 820.473C252.037 818.356 250.836 816.125 248.721 815.492C246.613 814.867 244.377 816.059 243.74 818.176C242.025 823.903 241.156 829.09 241.156 833.613C241.158 834.176 241.172 834.723 241.197 835.262C241.303 837.403 243.07 839.067 245.19 839.067C245.256 839.067 245.322 839.067 245.389 839.063C247.596 838.953 249.297 837.078 249.19 834.871C249.168 834.449 249.158 834.02 249.156 833.598Z" fill="#222222" fill-opacity="0.5"/>
<path d="M262.92 786.851C261.006 785.73 258.56 786.375 257.447 788.285C254.524 793.277 251.945 798.141 249.783 802.734C248.842 804.734 249.701 807.117 251.699 808.058C252.25 808.316 252.828 808.437 253.4 808.437C254.9 808.437 256.34 807.59 257.022 806.141C259.082 801.761 261.549 797.113 264.35 792.324C265.467 790.418 264.826 787.969 262.92 786.851Z" fill="#222222" fill-opacity="0.5"/>
<path d="M267.203 780.094C267.891 780.558 268.67 780.781 269.442 780.781C270.725 780.781 271.984 780.164 272.758 779.024C275.604 774.816 278.697 770.496 281.955 766.184C283.285 764.422 282.936 761.91 281.172 760.582C279.406 759.238 276.894 759.598 275.568 761.363C272.23 765.785 269.055 770.219 266.133 774.539C264.894 776.371 265.375 778.856 267.203 780.094Z" fill="#222222" fill-opacity="0.5"/>
<path d="M333.115 788.496C329.024 792.051 324.93 795.465 320.953 798.652C319.228 800.031 318.949 802.551 320.33 804.273C321.121 805.261 322.283 805.773 323.455 805.773C324.332 805.773 325.215 805.488 325.953 804.894C330.014 801.644 334.188 798.16 338.361 794.535C340.029 793.086 340.207 790.562 338.758 788.894C337.308 787.223 334.785 787.039 333.115 788.496Z" fill="#222222" fill-opacity="0.5"/>
<path d="M297.436 824.383C298.146 824.383 298.869 824.191 299.52 823.793C303.752 821.203 308.31 818.152 313.066 814.723C314.858 813.429 315.264 810.929 313.971 809.137C312.682 807.343 310.182 806.945 308.387 808.23C303.793 811.547 299.404 814.484 295.344 816.973C293.459 818.125 292.867 820.586 294.02 822.473C294.775 823.703 296.09 824.383 297.436 824.383Z" fill="#222222" fill-opacity="0.5"/>
<path d="M391.602 738.344C392.756 738.344 393.902 737.848 394.693 736.883C398.264 732.539 401.629 728.258 404.695 724.153C406.02 722.383 405.656 719.875 403.887 718.555C402.115 717.227 399.611 717.594 398.289 719.363C395.295 723.371 392.006 727.555 388.514 731.805C387.111 733.512 387.358 736.031 389.064 737.434C389.808 738.047 390.707 738.344 391.602 738.344Z" fill="#222222" fill-opacity="0.5"/>
<path d="M399.07 683.281C401.004 682.215 401.707 679.781 400.639 677.847C399.568 675.914 397.133 675.207 395.203 676.281C390.922 678.644 386.244 681.555 381.299 684.937C379.475 686.183 379.008 688.672 380.254 690.496C381.029 691.629 382.283 692.238 383.56 692.238C384.338 692.238 385.123 692.011 385.814 691.539C390.549 688.305 395.01 685.523 399.07 683.281Z" fill="#222222" fill-opacity="0.5"/>
<path d="M286.969 826.281C286.123 824.242 283.783 823.27 281.744 824.117C273.9 827.359 271.394 826.828 270.373 826.055C268.615 824.707 266.104 825.051 264.768 826.809C263.428 828.567 263.766 831.075 265.522 832.414C267.356 833.813 269.711 834.524 272.527 834.524C275.896 834.52 279.912 833.531 284.803 831.508C286.844 830.664 287.814 828.325 286.969 826.281Z" fill="#222222" fill-opacity="0.5"/>
<path d="M296.119 770.703C294.391 769.332 291.873 769.609 290.498 771.344C286.971 775.777 283.684 780.129 280.726 784.277C279.445 786.074 279.863 788.57 281.662 789.856C282.367 790.356 283.178 790.598 283.98 790.598C285.23 790.598 286.461 790.016 287.242 788.918C290.117 784.887 293.32 780.648 296.76 776.32C298.135 774.594 297.848 772.078 296.119 770.703Z" fill="#222222" fill-opacity="0.5"/>
<path d="M266.486 817.93C266.963 818.113 267.451 818.199 267.932 818.199C269.535 818.199 271.047 817.23 271.662 815.644C273.172 811.742 275.506 807.152 278.598 802.004C279.734 800.109 279.121 797.652 277.226 796.516C275.33 795.375 272.875 795.988 271.738 797.887C268.412 803.426 265.877 808.43 264.201 812.754C263.404 814.816 264.428 817.133 266.486 817.93Z" fill="#222222" fill-opacity="0.5"/>
<path d="M415.115 693.051C413.133 697.07 410.514 701.59 407.33 706.48C406.127 708.332 406.65 710.808 408.502 712.012C409.176 712.449 409.932 712.66 410.68 712.66C411.988 712.66 413.27 712.02 414.037 710.84C417.391 705.688 420.168 700.891 422.291 696.59C423.268 694.609 422.455 692.211 420.473 691.234C418.486 690.25 416.094 691.066 415.115 693.051Z" fill="#222222" fill-opacity="0.5"/>
<path d="M370.375 762.289C371.434 762.289 372.49 761.871 373.277 761.043C377.072 757.039 380.715 753.071 384.192 749.157C385.656 747.504 385.508 744.977 383.856 743.508C382.201 742.043 379.672 742.192 378.207 743.844C374.789 747.695 371.205 751.602 367.473 755.535C365.953 757.141 366.02 759.672 367.623 761.192C368.396 761.926 369.387 762.289 370.375 762.289Z" fill="#222222" fill-opacity="0.5"/>
<path d="M373.797 695.219C372.445 693.473 369.932 693.156 368.188 694.496C364.088 697.66 359.856 701.082 355.606 704.664C353.916 706.09 353.701 708.613 355.125 710.301C355.916 711.238 357.047 711.723 358.186 711.723C359.096 711.723 360.012 711.414 360.762 710.781C364.924 707.273 369.066 703.925 373.074 700.832C374.824 699.48 375.146 696.969 373.797 695.219Z" fill="#222222" fill-opacity="0.5"/>
<path d="M356.365 766.883C352.529 770.684 348.703 774.356 344.91 777.887C343.295 779.391 343.203 781.922 344.709 783.539C345.496 784.383 346.566 784.812 347.637 784.812C348.613 784.812 349.592 784.457 350.363 783.738C354.215 780.152 358.1 776.426 361.994 772.57C363.564 771.016 363.576 768.48 362.022 766.91C360.471 765.344 357.936 765.336 356.365 766.883Z" fill="#222222" fill-opacity="0.5"/>
<path d="M410.818 669.605C408.678 670.148 407.381 672.324 407.924 674.465C408.465 676.605 410.631 677.902 412.783 677.363C415.77 676.605 418.203 676.652 418.894 677.336C419.254 677.699 419.451 678.496 419.451 679.668C419.451 681.879 421.242 683.629 423.451 683.629C425.66 683.629 427.451 681.797 427.451 679.586C427.451 676.269 426.476 673.609 424.551 671.679C421.627 668.761 417.025 668.043 410.818 669.605Z" fill="#222222" fill-opacity="0.5"/>
<path d="M317 765C335.748 765 351 749.746 351 731C351 712.254 335.748 697 317 697C298.252 697 283 712.254 283 731C283 749.746 298.252 765 317 765ZM317 705C331.336 705 343 716.664 343 731C343 745.336 331.336 757 317 757C302.664 757 291 745.336 291 731C291 716.664 302.664 705 317 705Z" fill="#222222" fill-opacity="0.5"/>
<path d="M275 667C275 654.871 265.131 645 253 645C240.869 645 231 654.871 231 667C231 679.129 240.869 689 253 689C265.131 689 275 679.129 275 667ZM239 667C239 659.281 245.281 653 253 653C260.719 653 267 659.281 267 667C267 674.719 260.719 681 253 681C245.281 681 239 674.719 239 667Z" fill="#222222" fill-opacity="0.5"/>
<path fill-rule="evenodd" clip-rule="evenodd" d="M1611.81 256L1483 127.996L1611.81 0L1633.28 21.3302L1525.93 127.996C1561.71 163.552 1597.5 199.107 1633.28 234.662L1611.81 256V256ZM1847 127.996L1718.19 256L1696.72 234.662L1804.06 127.996L1696.72 21.3302L1718.19 0L1847 127.996V127.996Z" fill="#222222" fill-opacity="0.5"/>
<path d="M1279.3 900.557H1278.8C1272.3 900.557 1267 905.889 1267 912.357V963.711C1267 970.271 1272.3 975.571 1278.8 975.571H1279.31C1285.8 975.571 1291.12 970.245 1291.12 963.711V912.357C1291.1 905.883 1285.8 900.557 1279.3 900.557Z" fill="#222222" fill-opacity="0.5"/>
<path d="M1296.76 983.583C1296.76 989.563 1301.63 994.414 1307.61 994.414H1319.21V1022.17C1319.21 1028.67 1324.53 1034 1331 1034H1331.51C1338.02 1034 1343.33 1028.67 1343.33 1022.17V994.414H1359.53V1022.17C1359.53 1028.67 1364.86 1034 1371.35 1034H1371.85C1378.34 1034 1383.65 1028.67 1383.65 1022.17V994.414H1395.25C1401.21 994.414 1406.08 989.569 1406.08 983.583V902.451H1296.76V983.583Z" fill="#222222" fill-opacity="0.5"/>
<path d="M1378.63 853.249L1387.86 839.039C1388.46 838.129 1388.2 836.914 1387.29 836.333C1386.37 835.726 1385.18 835.97 1384.59 836.888L1375.05 851.605C1367.89 848.695 1359.88 847.012 1351.45 847.012C1343 847.012 1335.01 848.695 1327.83 851.605L1318.31 836.888C1317.71 835.977 1316.5 835.726 1315.58 836.333C1314.67 836.914 1314.41 838.135 1314.99 839.039L1324.23 853.242C1307.61 861.38 1296.4 876.705 1296.4 894.327C1296.4 895.409 1296.47 896.485 1296.56 897.534H1406.32C1406.42 896.485 1406.46 895.409 1406.46 894.327C1406.47 876.705 1395.26 861.38 1378.63 853.249ZM1325.99 878.698C1323.08 878.698 1320.7 876.322 1320.7 873.445C1320.7 870.481 1323.07 868.145 1325.99 868.145C1328.92 868.145 1331.3 870.481 1331.3 873.445C1331.29 876.322 1328.9 878.698 1325.99 878.698ZM1376.87 878.698C1373.96 878.698 1371.57 876.322 1371.57 873.445C1371.57 870.481 1373.95 868.145 1376.87 868.145C1379.79 868.145 1382.15 870.481 1382.15 873.445C1382.15 876.322 1379.79 878.698 1376.87 878.698Z" fill="#222222" fill-opacity="0.5"/>
<path d="M1424.05 900.557H1423.57C1417.07 900.557 1411.75 905.889 1411.75 912.357V963.711C1411.75 970.271 1417.09 975.571 1423.57 975.571H1424.06C1430.56 975.571 1435.86 970.245 1435.86 963.711V912.357C1435.86 905.883 1430.56 900.557 1424.05 900.557Z" fill="#222222" fill-opacity="0.5"/>
</svg>
