<svg width="1910" height="1054" viewBox="0 0 1910 1054" fill="none" xmlns="http://www.w3.org/2000/svg">
<path fill-rule="evenodd" clip-rule="evenodd" d="M1887.7 969.368C1893.62 971.907 1896.08 976.848 1897.18 982.549C1898.36 988.636 1900.18 994.328 1904.78 998.783C1905.39 999.37 1905.83 1000.16 1906.31 1000.89C1911.98 1009.5 1910.68 1015.58 1901.82 1020.71C1897.85 1023.02 1893.65 1024.94 1889.55 1027C1883.38 1030.1 1877.96 1034.07 1873.37 1039.36C1867.54 1046.05 1860.42 1050.87 1851.45 1052.55C1840.71 1054.55 1831.28 1049.86 1826.7 1039.83C1825.72 1037.69 1824.61 1037.04 1822.3 1036.92C1816.61 1036.58 1810.91 1036 1805.27 1035.17C1795.32 1033.7 1785.77 1036.15 1776.08 1037.57C1772.25 1038.13 1769.58 1039.39 1767.04 1042.66C1762.04 1049.08 1754.46 1050.73 1746.84 1049.72C1740.65 1048.9 1734.3 1047.34 1728.69 1044.69C1720.51 1040.86 1712.05 1039.09 1703.25 1038.14C1699.92 1037.78 1696.58 1037.33 1693.31 1036.63C1684.49 1034.72 1680.3 1028.99 1682.64 1020.33C1684.58 1013.18 1684.84 1006.38 1683.93 999.095C1682.62 988.691 1685.77 983.805 1696.1 980.872C1704.37 978.525 1707.51 971.366 1712.57 965.958C1712.97 965.527 1712.89 964.528 1712.83 963.813C1711.39 949.687 1715.61 936.798 1721.53 924.332C1728.02 910.673 1736.72 898.436 1746.15 886.675C1756.41 873.888 1760.56 859.175 1759.52 842.886C1758.74 830.621 1757.69 818.337 1760.64 806.164C1764.49 790.214 1775.46 780.094 1791.75 778.554C1798.71 777.894 1806.02 777.601 1812.79 778.967C1828.62 782.138 1836.12 793.752 1839.66 808.511C1842.44 820.097 1842.79 831.913 1842.28 843.711C1841.78 855.096 1844.4 865.39 1851.26 874.502C1856.19 881.056 1861.6 887.253 1866.22 894.018C1872.01 902.524 1877.89 911.068 1882.49 920.234C1890.13 935.478 1893.05 950.695 1887.7 969.368ZM1762.22 1003.8C1766.21 1010.51 1770.76 1015.93 1778.32 1018.53C1795.16 1024.33 1810.49 1020.82 1825.03 1011.75C1826.65 1010.75 1828.33 1008.7 1828.66 1006.91C1830.2 998.27 1831.29 989.534 1832.53 980.808C1833.68 972.622 1835.35 964.729 1843.74 960.467C1844.46 960.091 1844.82 958.762 1845.1 957.818C1846.64 952.785 1849.12 950.365 1854.19 951.153C1864.31 952.73 1874.36 954.985 1877.81 967.323C1879.88 963.886 1878.84 960.934 1876.67 958.725C1874.22 956.204 1871.36 953.784 1868.21 952.299C1864.22 950.438 1862.8 948.614 1863.16 943.673C1864.42 926.788 1856.55 913.359 1845.28 901.571C1845.04 901.323 1844.6 901.25 1844.25 901.103C1855.71 914.661 1863.29 929.08 1857.94 947.432C1851.92 946.983 1851.84 947.001 1851.3 944.37C1849.05 933.416 1844.58 923.333 1839.67 913.359C1835.59 905.027 1831.97 896.428 1828.57 887.803C1825.59 880.249 1823.2 872.421 1820.61 864.923C1817.79 866.783 1815.14 868.754 1812.29 870.386C1808.68 872.448 1804.85 874.108 1801.24 876.17C1792.1 881.358 1784.68 880.662 1776.68 873.787C1774.49 871.889 1772.06 870.276 1769.24 868.168C1767.88 882.633 1763.01 895.108 1757.56 907.419C1755.1 912.983 1752.59 918.52 1750.02 924.02C1745.14 934.443 1742.53 945.433 1741.52 957.68C1737.13 951.328 1735.91 945.058 1736.34 938.384C1736.89 929.758 1740.02 921.948 1744.01 914.413C1745.52 911.544 1746.86 908.611 1748.29 905.687C1748.01 905.558 1747.73 905.439 1747.45 905.311C1741.14 915.284 1735.43 925.578 1733.13 937.321C1730.15 952.611 1735.22 962.676 1748.52 970.568C1756.88 975.509 1764.5 981.559 1768.99 990.552C1772.61 997.748 1770.28 1002.22 1762.22 1003.8ZM1744.64 1041.2C1752.37 1040.62 1757.9 1039.58 1761.07 1033.93C1764.25 1028.29 1763.19 1022.81 1759.79 1017.68C1757.65 1014.42 1755.14 1011.39 1752.98 1008.13C1748.93 1002.01 1744.96 995.813 1741.04 989.608C1738.22 985.116 1735.92 980.258 1732.73 976.068C1727.99 969.835 1719.8 966.993 1713.55 976.728C1710.16 982.027 1705.67 985.373 1699.62 987.206C1693.33 989.103 1691.62 992.825 1692.14 999.453C1692.53 1004.47 1693.28 1009.8 1692.07 1014.53C1689.27 1025.47 1691.13 1028.96 1702.34 1030.11C1712.52 1031.16 1722.45 1032.77 1731.79 1037.57C1736.2 1039.82 1741.5 1040.35 1744.64 1041.2ZM1848.02 970.119C1846.53 972.017 1844.63 973.63 1843.81 975.683C1842.52 978.873 1841.47 982.348 1841.19 985.748C1840.31 996.345 1839.28 1006.86 1835.69 1016.95C1834.96 1019.01 1834.54 1021.18 1834.14 1023.32C1832.91 1029.91 1833.56 1036.06 1839.17 1040.62C1844.7 1045.15 1851.04 1045.3 1857.08 1042.37C1861.51 1040.24 1866 1037.45 1869.31 1033.86C1875.18 1027.51 1882 1022.91 1889.71 1019.31C1892.67 1017.93 1895.59 1016.37 1898.29 1014.54C1901.4 1012.43 1902 1009.94 1900.35 1006.54C1899.26 1004.32 1897.91 1002.1 1896.25 1000.27C1893.33 997.06 1891.82 993.32 1890.92 989.204C1890.35 986.647 1889.76 984.043 1888.68 981.688C1886.13 975.995 1878.77 974.739 1873.76 978.397C1870.57 980.725 1866.86 982.604 1863.11 983.86C1858.34 985.473 1854.14 983.594 1851.68 979.222C1850.2 976.618 1849.39 973.648 1848.02 970.119ZM1790.43 874.053C1791.86 873.677 1794.39 873.429 1796.55 872.384C1802.16 869.753 1807.62 866.802 1813.1 863.896C1814.13 863.355 1815.07 862.603 1815.95 861.833C1821.83 856.59 1820.89 850.769 1813.71 847.597C1808.57 845.342 1803.45 843.051 1798.36 840.667C1791.67 837.569 1785.2 837.395 1779.12 842.042C1775.21 845.031 1771.39 848.147 1767.57 851.264C1765.29 853.107 1764.75 855.453 1765.91 858.194C1767.76 862.512 1782.53 873.301 1787.31 873.787C1788 873.878 1788.69 873.915 1790.43 874.053ZM1810.21 843.17C1811.56 843.757 1812.63 844.123 1813.56 844.673C1816.65 846.516 1818.73 845.278 1819.3 842.217C1820.13 837.652 1821.25 832.885 1820.66 828.393C1819.68 820.895 1814.07 815.789 1808.21 815.487C1801.17 815.147 1795.31 820.968 1794.04 829.521C1793.06 836.093 1793.23 836.341 1799.64 837.844C1800.33 835.103 1800.59 832.152 1801.87 829.732C1802.69 828.155 1805.01 826.404 1806.6 826.459C1808.2 826.496 1810.35 828.393 1811.17 830.025C1813.31 834.297 1812.59 838.697 1810.21 843.17ZM1853.18 965.536C1853.4 969.203 1854.18 973.236 1858.17 975.115C1861.95 976.921 1865.35 974.904 1868.43 972.658C1869.19 972.099 1869.9 971.421 1870.51 970.706C1872.71 968.185 1872.68 965.169 1869.93 963.272C1867.37 961.503 1864.47 959.999 1861.52 959.009C1855.94 957.158 1853.14 959.376 1853.18 965.536ZM1778.99 838.926C1780.82 837.477 1783.67 836.332 1783.83 834.865C1784.46 829.42 1783.05 824.232 1778.82 820.308C1775.13 816.889 1770.72 817.412 1767.52 821.417C1762.38 827.825 1763.21 840.182 1769.31 846.195C1770.35 845.425 1771.41 844.637 1772.56 843.775C1769.53 840.447 1768.93 836.634 1769.83 832.784C1770.21 831.152 1772.05 829.887 1773.22 828.448C1774.55 829.576 1776.33 830.474 1777.08 831.904C1778.08 833.811 1778.28 836.121 1778.99 838.926Z" fill="#222222" fill-opacity="0.5"/>
<path fill-rule="evenodd" clip-rule="evenodd" d="M1775.59 876.042C1776.35 876.683 1777.12 877.297 1777.85 877.976C1785.08 884.667 1790.73 885.456 1799.44 880.854C1801.95 879.525 1804.36 877.985 1806.88 876.628C1807.8 876.142 1808.87 875.913 1810.02 875.987C1802.86 879.745 1796.71 886.07 1787.63 884.814C1782.2 884.062 1778.48 880.588 1774.93 876.922C1775.15 876.637 1775.37 876.344 1775.59 876.042Z" fill="#222222" fill-opacity="0.5"/>
<path d="M1491.31 16.6734C1485.53 16.6734 1479.84 17.1447 1474.29 18.0428C1474.22 17.8383 1474.14 17.6249 1474.06 17.4382C1477.13 14.8327 1478.75 11.2401 1478.05 7.65643C1477.16 3.0768 1472.68 0 1466.9 0C1465.66 0 1464.39 0.151172 1463.14 0.435732C1455.89 2.11641 1451.09 7.90542 1452.21 13.6144C1452.89 17.0914 1455.64 19.6968 1459.45 20.7373C1459.44 21.004 1459.45 21.2441 1459.46 21.5109C1411.26 36.4947 1376 84.6475 1376 141.728C1376 210.796 1427.62 266.774 1491.31 266.774C1555 266.774 1606.62 210.796 1606.62 141.72C1606.62 72.6694 1555 16.6734 1491.31 16.6734ZM1455.96 12.7518C1455.31 9.43492 1458.96 5.66451 1463.93 4.51738C1464.92 4.29507 1465.91 4.17057 1466.89 4.17057C1470.74 4.17057 1473.78 5.95796 1474.29 8.51011C1474.66 10.4842 1473.55 12.5918 1471.55 14.2369C1469.86 12.9297 1467.7 12.3694 1465.52 12.8763C1463.35 13.3832 1461.59 14.8416 1460.53 16.7534C1458.1 16.1043 1456.34 14.637 1455.96 12.7518ZM1553.14 208.787C1542.57 220.249 1529.79 228.395 1515.83 232.787L1505.65 214.878L1503.07 235.704C1499.2 236.264 1495.28 236.558 1491.31 236.558C1467.95 236.558 1445.99 226.696 1429.47 208.787C1418.91 197.324 1411.38 183.461 1407.33 168.317L1423.86 157.272L1404.63 154.48C1404.13 150.292 1403.86 146.041 1403.86 141.728C1403.86 116.394 1412.95 92.5974 1429.47 74.6791C1440.03 63.2167 1452.83 55.08 1466.78 50.6694L1476.97 68.5966L1479.55 47.7526C1483.42 47.1924 1487.34 46.899 1491.31 46.899C1514.67 46.899 1536.62 56.7607 1553.14 74.6791C1563.7 86.1237 1571.23 100.005 1575.28 115.14L1558.75 126.184L1577.97 128.977C1578.48 133.183 1578.75 137.416 1578.75 141.728C1578.75 167.063 1569.66 190.859 1553.14 208.787ZM1551.1 76.8844L1503.78 115.878C1500.25 113.886 1496.37 112.73 1492.38 112.57L1480.11 84.6386L1479.37 115.549C1476.18 117.265 1473.34 119.648 1471 122.583L1455.84 116.758L1466.91 129.395C1465.4 132.925 1464.54 136.704 1464.41 140.546L1438.66 153.849L1467.19 154.649C1467.28 154.871 1467.37 155.067 1467.47 155.254L1431.51 206.572L1478.84 167.561C1482.35 169.562 1486.25 170.709 1490.23 170.878L1502.49 198.809L1503.23 167.89C1506.43 166.192 1509.27 163.808 1511.6 160.856L1526.77 166.69L1515.69 154.044C1517.21 150.523 1518.06 146.753 1518.2 142.893L1543.94 129.572L1515.42 128.79C1515.33 128.585 1515.24 128.381 1515.14 128.194L1551.1 76.8844ZM1491.33 115.816V116.714V115.816ZM1486.52 117.274C1488.13 116.892 1489.75 116.714 1491.33 116.714C1492.33 116.714 1493.31 116.785 1494.28 116.918H1494.31C1496.42 117.212 1498.44 117.843 1500.34 118.706L1483.16 132.88L1470.1 151.519C1469.52 150.061 1469.07 148.531 1468.75 146.93C1466.1 133.423 1474.06 120.137 1486.52 117.274ZM1503.35 163.053C1501.17 164.493 1498.74 165.569 1496.11 166.201C1494.49 166.583 1492.87 166.761 1491.28 166.761C1490.28 166.761 1489.31 166.672 1488.33 166.556L1488.32 166.538V166.556C1486.22 166.245 1484.19 165.631 1482.28 164.751L1499.47 150.576L1512.53 131.938C1513.1 133.396 1513.56 134.926 1513.87 136.544C1515.96 147.179 1511.45 157.682 1503.35 163.053Z" fill="#222222" fill-opacity="0.5"/>
<path d="M131.035 845.318C129.066 843.793 126.535 844.403 125.129 846.233C113.598 863.621 110.223 878.873 115.286 890.465C121.192 904.192 138.066 910.598 161.971 910.598C167.033 910.598 172.658 910.293 178.283 909.683C202.188 936.222 235.373 953 272.215 953C344.212 953 402.99 889.245 402.99 811.153C402.99 806.272 402.709 801.391 402.146 796.51C425.208 771.801 435.895 748.618 428.864 731.84C424.083 720.553 411.427 713.537 392.303 711.707C390.053 711.402 388.085 713.232 387.803 715.977C387.522 718.723 389.209 720.553 391.741 720.858C402.709 721.773 416.771 725.129 421.27 735.501C426.051 746.787 418.739 764.48 400.74 784.918C389.491 719.028 336.056 669 272.215 669C200.219 669 141.441 732.755 141.441 810.847C141.441 845.013 152.69 876.433 171.252 900.837C145.378 902.667 127.941 897.481 123.16 886.194C118.66 875.518 125.691 861.485 132.16 851.419C133.285 849.589 133.004 846.843 131.035 845.318ZM271.934 943.849C239.873 943.849 210.625 930.426 188.688 908.463C219.905 903.582 257.872 890.77 297.527 870.637C337.181 850.504 370.648 827.015 394.272 804.441C394.272 806.577 394.553 809.017 394.553 811.153C394.272 884.364 339.431 943.849 271.934 943.849ZM271.934 678.456C333.806 678.456 384.991 728.484 393.147 793.155C371.21 815.728 337.462 840.437 293.87 862.401C253.935 882.534 213.999 895.956 181.376 900.227C161.69 876.738 149.596 845.318 149.596 811.153C149.596 737.941 204.437 678.456 271.934 678.456Z" fill="#222222" fill-opacity="0.4"/>
</svg>
